{"glyphs":{"0":{"ha":732,"x_min":69,"x_max":663,"o":"m 663 972 l 663 0 l 69 0 l 69 972 l 663 972 m 365 515 l 624 944 l 108 944 l 365 515 m 99 903 l 99 68 l 349 486 l 99 903 m 110 29 l 624 29 l 367 457 l 110 29 m 635 65 l 635 906 l 383 486 l 635 65 z "},"1":{"ha":732,"x_min":69,"x_max":663,"o":"m 663 972 l 663 0 l 69 0 l 69 972 l 663 972 m 365 515 l 624 944 l 108 944 l 365 515 m 99 903 l 99 68 l 349 486 l 99 903 m 110 29 l 624 29 l 367 457 l 110 29 m 635 65 l 635 906 l 383 486 l 635 65 z "},"2":{"ha":732,"x_min":69,"x_max":663,"o":"m 663 972 l 663 0 l 69 0 l 69 972 l 663 972 m 365 515 l 624 944 l 108 944 l 365 515 m 99 903 l 99 68 l 349 486 l 99 903 m 110 29 l 624 29 l 367 457 l 110 29 m 635 65 l 635 906 l 383 486 l 635 65 z "},"3":{"ha":732,"x_min":69,"x_max":663,"o":"m 663 972 l 663 0 l 69 0 l 69 972 l 663 972 m 365 515 l 624 944 l 108 944 l 365 515 m 99 903 l 99 68 l 349 486 l 99 903 m 110 29 l 624 29 l 367 457 l 110 29 m 635 65 l 635 906 l 383 486 l 635 65 z "},"4":{"ha":732,"x_min":69,"x_max":663,"o":"m 663 972 l 663 0 l 69 0 l 69 972 l 663 972 m 365 515 l 624 944 l 108 944 l 365 515 m 99 903 l 99 68 l 349 486 l 99 903 m 110 29 l 624 29 l 367 457 l 110 29 m 635 65 l 635 906 l 383 486 l 635 65 z "},"5":{"ha":732,"x_min":69,"x_max":663,"o":"m 663 972 l 663 0 l 69 0 l 69 972 l 663 972 m 365 515 l 624 944 l 108 944 l 365 515 m 99 903 l 99 68 l 349 486 l 99 903 m 110 29 l 624 29 l 367 457 l 110 29 m 635 65 l 635 906 l 383 486 l 635 65 z "},"6":{"ha":732,"x_min":69,"x_max":663,"o":"m 663 972 l 663 0 l 69 0 l 69 972 l 663 972 m 365 515 l 624 944 l 108 944 l 365 515 m 99 903 l 99 68 l 349 486 l 99 903 m 110 29 l 624 29 l 367 457 l 110 29 m 635 65 l 635 906 l 383 486 l 635 65 z "},"7":{"ha":732,"x_min":69,"x_max":663,"o":"m 663 972 l 663 0 l 69 0 l 69 972 l 663 972 m 365 515 l 624 944 l 108 944 l 365 515 m 99 903 l 99 68 l 349 486 l 99 903 m 110 29 l 624 29 l 367 457 l 110 29 m 635 65 l 635 906 l 383 486 l 635 65 z "},"8":{"ha":732,"x_min":69,"x_max":663,"o":"m 663 972 l 663 0 l 69 0 l 69 972 l 663 972 m 365 515 l 624 944 l 108 944 l 365 515 m 99 903 l 99 68 l 349 486 l 99 903 m 110 29 l 624 29 l 367 457 l 110 29 m 635 65 l 635 906 l 383 486 l 635 65 z "},"9":{"ha":732,"x_min":69,"x_max":663,"o":"m 663 972 l 663 0 l 69 0 l 69 972 l 663 972 m 365 515 l 624 944 l 108 944 l 365 515 m 99 903 l 99 68 l 349 486 l 99 903 m 110 29 l 624 29 l 367 457 l 110 29 m 635 65 l 635 906 l 383 486 l 635 65 z "},"\u0000":{"ha":0,"x_min":0,"x_max":0,"o":""},"\r":{"ha":0,"x_min":0,"x_max":0,"o":""}," ":{"ha":300,"x_min":0,"x_max":0,"o":""},"A":{"ha":929,"x_min":-7,"x_max":900,"o":"m 331 972 q 438 957 394 972 q 522 923 482 942 q 610 888 563 904 q 731 872 658 872 l 732 847 q 713 826 719 840 q 702 796 706 815 q 704 746 699 776 l 828 126 q 847 76 835 94 q 871 46 858 57 q 900 28 885 33 l 900 0 l 583 0 l 583 28 q 606 46 597 33 q 619 76 614 57 q 617 126 624 94 l 578 322 l 364 322 l 308 128 q 300 76 299 96 q 306 44 301 56 q 322 28 311 32 l 321 0 l 114 0 l 114 28 q 142 42 128 31 q 168 72 154 53 q 193 128 182 92 l 407 893 q 324 922 369 922 q 263 911 294 922 q 206 876 232 900 q 164 815 181 851 q 147 728 147 778 q 161 662 147 686 q 191 619 175 638 q 221 582 207 600 q 235 538 235 564 q 218 495 235 510 q 174 481 201 481 q 65 517 107 481 q 8 608 24 553 q 6 726 -7 663 q 58 845 18 790 q 165 936 97 900 q 331 972 233 972 m 382 388 l 565 388 l 489 763 l 382 388 z "},"B":{"ha":942,"x_min":-7,"x_max":917,"o":"m 418 972 q 601 947 525 972 q 725 882 676 922 q 796 790 774 842 q 817 685 818 739 q 792 581 815 632 q 728 492 769 531 q 837 435 794 478 q 898 336 879 392 q 911 219 917 281 q 875 108 906 158 q 789 25 844 58 q 651 -8 733 -8 q 566 0 601 -8 q 507 22 531 8 l 507 0 l 243 0 l 243 28 q 269 46 257 33 q 288 76 279 57 q 296 126 296 94 l 296 728 q 274 782 296 764 q 228 800 253 800 l 228 822 q 387 829 306 822 q 539 872 468 836 l 554 847 q 531 826 540 840 q 515 796 522 815 q 507 746 507 776 l 507 465 q 574 499 544 465 q 619 584 603 533 q 636 694 636 635 q 615 803 636 753 q 545 888 593 854 q 418 922 497 922 q 274 893 328 922 q 192 824 221 864 q 155 740 164 783 q 146 669 146 697 q 159 603 146 628 q 189 560 172 579 q 219 524 206 542 q 232 479 232 506 q 216 437 232 451 q 172 422 200 422 q 63 463 106 422 q 7 565 21 504 q 9 697 -7 626 q 75 829 25 768 q 210 931 125 890 q 418 972 294 972 m 507 254 q 512 198 508 231 q 525 136 515 165 q 551 87 535 107 q 594 67 568 67 q 648 92 626 67 q 681 156 669 118 q 692 240 692 194 q 682 323 692 285 q 651 387 672 361 q 600 413 631 413 q 553 393 571 413 q 526 349 536 374 q 511 301 515 325 q 507 269 507 278 l 507 254 z "},"C":{"ha":896,"x_min":-1,"x_max":869,"o":"m 583 124 q 684 142 640 124 q 760 182 728 160 q 824 239 796 207 l 853 217 q 771 110 822 157 q 722 71 750 90 q 660 36 694 51 q 583 12 625 21 q 492 3 542 3 q 279 44 371 3 q 126 154 188 86 q 33 310 64 222 q 0 488 1 397 q 29 665 -1 578 q 122 821 60 753 q 279 931 185 889 q 500 972 374 972 q 703 932 624 972 q 824 832 783 892 q 867 702 864 772 q 838 572 869 632 q 743 472 807 513 q 586 432 679 432 q 482 451 524 432 q 418 500 440 471 q 390 563 396 529 q 391 626 383 597 q 418 675 399 656 q 464 694 438 694 q 503 681 490 694 q 521 646 515 667 q 528 601 526 625 q 538 556 531 576 q 560 521 544 535 q 606 507 575 507 q 664 538 640 507 q 698 613 688 568 q 706 711 708 658 q 684 809 703 764 q 630 885 665 854 q 540 915 594 915 q 419 881 474 915 q 328 792 365 847 q 269 665 290 736 q 245 519 247 593 q 261 374 243 446 q 321 247 279 303 q 427 158 363 192 q 583 124 492 124 z "},"D":{"ha":979,"x_min":-7,"x_max":951,"o":"m 418 972 q 656 931 556 972 q 821 820 756 889 q 918 665 886 751 q 951 486 950 578 q 922 308 951 394 q 837 152 893 221 q 697 42 781 83 q 507 0 614 0 l 243 0 l 243 28 q 269 46 257 33 q 288 76 279 57 q 296 126 296 94 l 296 728 q 274 782 296 764 q 228 800 253 800 l 228 822 q 387 829 306 822 q 539 872 468 836 l 554 847 q 531 826 540 840 q 515 796 522 815 q 507 746 507 776 l 507 99 l 507 57 q 592 94 553 57 q 662 192 632 132 q 708 331 692 253 q 727 490 725 408 q 713 649 729 571 q 660 787 697 726 q 564 885 624 847 q 418 922 504 922 q 274 893 328 922 q 192 824 221 864 q 155 740 164 783 q 146 669 146 697 q 159 603 146 628 q 189 560 172 579 q 219 524 206 542 q 232 479 232 506 q 216 437 232 451 q 172 422 200 422 q 63 463 106 422 q 7 565 21 504 q 9 697 -7 626 q 75 829 25 768 q 210 931 125 890 q 418 972 294 972 z "},"E":{"ha":892,"x_min":-7,"x_max":913,"o":"m 740 88 q 790 103 771 88 q 819 139 808 119 q 838 189 832 161 l 867 189 l 867 0 l 261 0 l 261 28 q 288 46 276 33 q 306 76 299 57 q 314 126 314 94 l 314 728 q 292 782 314 764 q 247 800 271 800 l 247 822 q 406 829 325 822 q 558 872 488 836 l 572 847 q 549 826 558 840 q 533 796 540 815 q 525 746 525 776 l 525 608 l 601 608 q 656 630 638 608 q 674 675 674 651 l 696 675 q 697 653 696 665 q 706 596 700 631 q 715 554 710 576 q 726 513 721 532 q 738 465 732 489 l 713 450 q 693 483 706 468 q 665 506 682 496 q 619 517 647 517 l 526 517 l 526 88 l 740 88 m 851 972 q 899 943 885 972 q 905 880 913 914 q 867 817 897 846 q 782 788 836 788 q 688 808 728 788 q 608 855 647 829 q 525 901 569 881 q 418 922 481 922 q 274 893 328 922 q 192 824 221 864 q 155 740 164 783 q 146 669 146 697 q 159 603 146 628 q 189 560 172 579 q 219 524 206 542 q 232 479 232 506 q 216 437 232 451 q 172 422 200 422 q 63 463 106 422 q 7 565 21 504 q 9 697 -7 626 q 75 829 25 768 q 210 931 125 890 q 418 972 294 972 q 506 967 468 972 q 579 954 544 961 q 649 942 614 947 q 729 936 683 936 q 781 942 761 936 q 815 954 801 947 q 836 967 828 961 q 851 972 844 972 z "},"F":{"ha":743,"x_min":-7,"x_max":913,"o":"m 696 675 q 697 653 696 665 q 706 596 700 631 q 715 554 710 576 q 725 513 719 532 q 738 465 731 489 l 713 450 q 693 483 706 468 q 665 506 682 496 q 619 517 647 517 l 525 517 l 525 126 q 534 76 526 94 q 553 46 542 57 q 579 28 564 33 l 579 0 l 261 0 l 261 28 q 288 46 276 33 q 306 76 299 57 q 314 126 314 94 l 314 728 q 292 782 314 764 q 247 800 271 800 l 247 822 q 406 829 325 822 q 558 872 488 836 l 572 847 q 550 826 560 840 q 533 796 540 815 q 526 746 526 776 l 526 608 l 601 608 q 656 630 638 608 q 674 675 674 651 l 696 675 m 851 972 q 899 943 885 972 q 905 880 913 914 q 867 817 897 846 q 782 788 836 788 q 688 808 728 788 q 608 855 647 829 q 525 901 569 881 q 418 922 481 922 q 274 893 328 922 q 192 824 221 864 q 155 740 164 783 q 146 669 146 697 q 159 603 146 628 q 189 560 172 579 q 219 524 206 542 q 232 479 232 506 q 216 437 232 451 q 172 422 200 422 q 63 463 106 422 q 7 565 21 504 q 9 697 -7 626 q 75 829 25 768 q 210 931 125 890 q 418 972 294 972 q 506 967 468 972 q 579 954 544 961 q 649 942 614 947 q 729 936 683 936 q 781 942 761 936 q 815 954 801 947 q 836 967 828 961 q 851 972 844 972 z "},"G":{"ha":899,"x_min":0,"x_max":869,"o":"m 817 126 q 826 76 818 94 q 843 46 833 57 q 869 28 856 33 l 869 0 l 606 0 l 606 19 l 606 47 q 531 15 574 28 q 435 3 488 3 q 248 44 329 3 q 112 154 167 86 q 28 310 57 222 q 0 488 0 397 q 29 665 0 578 q 117 821 58 753 q 266 931 176 889 q 478 972 356 972 q 674 935 597 972 q 790 843 751 899 q 832 723 829 788 q 804 603 835 658 q 712 510 774 547 q 561 474 650 474 q 460 493 500 474 q 399 542 421 513 q 372 605 378 571 q 374 668 367 639 q 400 717 382 697 q 444 736 418 736 q 482 722 471 736 q 499 688 493 708 q 506 642 504 667 q 515 597 508 618 q 536 563 522 576 q 581 549 550 549 q 636 576 614 549 q 669 644 658 603 q 676 732 679 685 q 656 820 674 779 q 603 888 638 861 q 517 915 569 915 q 392 881 446 915 q 303 792 339 847 q 250 665 268 736 q 231 519 232 593 q 245 374 229 446 q 294 247 261 303 q 376 158 326 192 q 492 124 425 124 q 554 129 526 124 q 606 143 582 135 l 606 342 q 584 396 606 378 q 539 414 563 414 l 539 436 q 698 444 617 436 q 850 488 779 451 l 864 461 q 840 440 850 454 q 824 410 832 429 q 817 360 817 390 l 817 126 z "},"H":{"ha":1138,"x_min":-4,"x_max":1108,"o":"m 279 972 q 354 965 322 972 q 412 946 386 957 q 462 922 438 935 q 515 899 486 910 q 578 880 543 888 q 661 872 613 872 l 661 850 q 635 826 653 844 q 617 769 617 807 l 617 519 l 844 519 l 844 746 q 837 798 844 778 q 818 829 829 818 q 792 850 807 843 l 792 872 l 1103 872 l 1103 847 q 1079 826 1089 840 q 1063 796 1071 815 q 1056 746 1056 776 l 1056 126 q 1065 76 1057 94 q 1082 46 1072 57 q 1108 28 1094 33 l 1108 0 l 792 0 l 792 28 q 818 46 807 33 q 837 76 829 57 q 844 126 844 94 l 844 456 l 617 456 l 617 126 q 626 76 618 94 q 643 46 633 57 q 669 28 656 33 l 669 0 l 353 0 l 353 28 q 379 46 368 33 q 398 76 390 57 q 406 126 406 94 l 406 788 q 399 835 406 811 q 377 879 392 860 q 340 910 363 899 q 286 922 318 922 q 237 910 258 922 q 200 877 215 897 q 176 831 185 857 q 168 776 168 804 q 181 710 168 735 q 211 667 194 686 q 241 631 228 649 q 254 588 254 614 q 238 544 254 560 q 193 529 221 529 q 82 562 126 529 q 17 644 38 594 q 1 751 -4 693 q 38 858 6 808 q 130 940 69 907 q 279 972 190 972 z "},"I":{"ha":699,"x_min":-4,"x_max":669,"o":"m 617 126 q 626 76 618 94 q 643 46 633 57 q 669 28 656 33 l 669 0 l 353 0 l 353 28 q 379 46 368 33 q 398 76 390 57 q 406 126 406 94 l 406 788 q 399 835 406 811 q 377 879 392 860 q 340 910 363 899 q 286 922 318 922 q 237 910 258 922 q 200 877 215 897 q 176 831 185 857 q 168 776 168 804 q 181 710 168 735 q 211 667 194 686 q 241 631 228 649 q 254 588 254 614 q 238 544 254 560 q 193 529 221 529 q 82 562 126 529 q 17 644 38 594 q 1 751 -4 693 q 38 858 6 808 q 130 940 69 907 q 279 972 190 972 q 354 965 322 972 q 412 946 386 957 q 462 922 438 935 q 515 899 486 910 q 578 880 543 888 q 661 872 613 872 l 661 850 q 635 826 653 844 q 617 769 617 807 l 617 126 z "},"J":{"ha":690,"x_min":-4,"x_max":661,"o":"m 661 850 q 650 842 657 847 q 635 826 643 836 q 622 803 628 817 q 617 769 617 789 l 617 249 q 600 147 617 194 q 550 64 583 99 q 467 9 517 29 q 353 -11 418 -11 q 247 5 290 -11 q 176 46 203 21 q 137 99 149 71 q 127 151 125 126 q 144 192 129 176 q 183 208 158 208 q 234 197 217 208 q 260 169 251 186 q 272 131 268 151 q 281 94 275 111 q 297 65 286 76 q 333 54 308 54 q 369 72 356 54 q 391 116 383 89 q 402 176 399 143 q 406 240 406 208 l 406 788 q 399 835 406 811 q 377 879 392 860 q 340 910 363 899 q 286 922 318 922 q 237 910 258 922 q 200 877 215 897 q 176 831 185 857 q 168 776 168 804 q 181 710 168 735 q 211 667 194 686 q 241 631 228 649 q 254 588 254 614 q 238 544 254 560 q 193 529 221 529 q 82 562 126 529 q 17 644 38 594 q 1 751 -4 693 q 38 858 6 808 q 130 940 69 907 q 279 972 190 972 q 354 965 322 972 q 412 946 386 957 q 462 922 438 935 q 515 899 486 910 q 578 880 543 888 q 661 872 613 872 l 661 850 z "},"K":{"ha":1147,"x_min":-4,"x_max":1118,"o":"m 279 972 q 354 965 322 972 q 412 946 386 957 q 462 922 438 935 q 515 899 486 910 q 578 880 543 888 q 661 872 613 872 l 661 850 q 635 826 653 844 q 617 769 617 807 l 617 457 q 684 540 650 496 q 748 626 718 583 q 799 709 778 669 q 828 778 821 749 q 824 826 835 808 q 776 844 813 844 l 776 872 l 1093 872 l 1093 844 q 1069 839 1082 843 q 1046 831 1058 836 q 1019 817 1033 826 q 973 775 1001 804 q 910 705 944 746 q 838 617 876 664 q 763 521 800 569 l 1051 81 q 1077 51 1065 61 q 1097 35 1089 40 q 1118 28 1108 29 l 1118 0 l 800 0 l 800 28 q 826 40 815 32 q 839 56 835 47 q 832 79 843 65 q 797 131 821 96 q 744 208 772 167 q 688 292 715 250 q 640 361 660 333 q 628 344 633 353 q 617 329 622 336 l 617 126 q 626 76 618 94 q 643 46 633 57 q 669 28 656 33 l 669 0 l 353 0 l 353 28 q 379 46 368 33 q 398 76 390 57 q 406 126 406 94 l 406 788 q 399 835 406 811 q 377 879 392 860 q 340 910 363 899 q 286 922 318 922 q 237 910 258 922 q 200 877 215 897 q 176 831 185 857 q 168 776 168 804 q 181 710 168 735 q 211 667 194 686 q 241 631 228 649 q 254 588 254 614 q 238 544 254 560 q 193 529 221 529 q 82 562 126 529 q 17 644 38 594 q 1 751 -4 693 q 38 858 6 808 q 130 940 69 907 q 279 972 190 972 z "},"L":{"ha":994,"x_min":-4,"x_max":965,"o":"m 965 189 l 965 0 l 353 0 l 353 28 q 379 46 368 33 q 398 76 390 57 q 406 126 406 94 l 406 788 q 399 835 406 811 q 377 879 392 860 q 340 910 363 899 q 286 922 318 922 q 237 910 258 922 q 200 877 215 897 q 176 831 185 857 q 168 776 168 804 q 181 710 168 735 q 211 667 194 686 q 241 631 228 649 q 254 588 254 614 q 238 544 254 560 q 193 529 221 529 q 82 562 126 529 q 17 644 38 594 q 1 751 -4 693 q 38 858 6 808 q 130 940 69 907 q 279 972 190 972 q 354 965 322 972 q 412 946 386 957 q 462 922 438 935 q 515 899 486 910 q 578 880 543 888 q 661 872 613 872 l 661 850 q 635 826 653 844 q 617 769 617 807 l 617 88 l 840 88 q 889 103 871 88 q 918 139 907 119 q 938 189 932 161 l 965 189 z "},"M":{"ha":1324,"x_min":-6,"x_max":1294,"o":"m 286 972 q 394 957 344 972 q 489 923 443 942 q 580 888 535 904 q 675 872 625 872 l 817 375 l 943 874 l 1260 874 l 1260 846 q 1233 828 1246 840 q 1216 797 1224 817 q 1207 746 1208 778 l 1242 126 q 1251 76 1243 94 q 1268 46 1258 57 q 1294 28 1281 33 l 1294 0 l 978 0 l 978 28 q 1004 46 993 33 q 1023 76 1015 57 q 1031 126 1031 94 l 999 693 l 819 0 l 721 0 l 517 708 l 485 126 q 494 76 486 94 q 511 46 501 57 q 538 28 524 33 l 538 0 l 319 0 l 319 28 q 346 46 335 33 q 365 76 357 57 q 372 126 372 94 l 407 788 q 400 835 407 811 q 378 879 393 860 q 342 910 364 899 q 288 922 319 922 q 238 910 260 922 q 201 877 217 897 q 178 831 186 857 q 169 776 169 804 q 183 710 169 735 q 213 667 196 686 q 242 631 229 649 q 256 588 256 614 q 239 544 256 560 q 194 529 222 529 q 78 562 124 529 q 13 644 32 594 q 2 751 -6 693 q 44 858 10 808 q 138 940 78 907 q 286 972 199 972 z "},"N":{"ha":1101,"x_min":-6,"x_max":1072,"o":"m 286 972 q 394 957 344 972 q 489 923 443 942 q 580 888 535 904 q 675 872 625 872 l 908 397 l 908 746 q 901 797 908 778 q 882 828 893 817 q 856 846 871 840 l 856 874 l 1072 874 l 1072 846 q 1046 828 1057 840 q 1028 797 1036 817 q 1019 746 1019 778 l 1019 126 q 1028 76 1019 94 q 1046 46 1036 57 q 1072 28 1057 33 l 1072 0 l 856 0 l 519 686 l 519 126 q 528 76 521 94 q 546 46 536 57 q 572 28 558 33 l 572 0 l 354 0 l 354 28 q 381 46 369 33 q 399 76 392 57 q 407 126 407 94 l 407 788 q 400 835 407 811 q 378 879 393 860 q 342 910 364 899 q 288 922 319 922 q 238 910 260 922 q 201 877 217 897 q 178 831 186 857 q 169 776 169 804 q 183 710 169 735 q 213 667 196 686 q 242 631 229 649 q 256 588 256 614 q 239 544 256 560 q 194 529 222 529 q 78 562 124 529 q 13 644 32 594 q 2 751 -6 693 q 44 858 10 808 q 138 940 78 907 q 286 972 199 972 z "},"O":{"ha":828,"x_min":0,"x_max":814,"o":"m 407 972 q 590 928 513 972 q 717 813 667 883 q 790 653 767 742 q 814 475 814 564 q 788 281 814 372 q 712 123 763 190 q 585 16 661 56 q 407 -24 508 -24 q 235 16 311 -24 q 108 123 160 56 q 28 281 56 190 q 0 475 0 372 q 10 594 0 535 q 41 706 21 653 q 90 806 61 760 q 158 885 119 851 q 116 733 117 801 q 134 614 115 664 q 178 534 153 564 q 214 499 204 504 q 225 332 210 414 q 267 185 240 250 q 331 82 294 121 q 407 43 368 43 l 414 43 q 489 85 454 47 q 549 183 524 122 q 587 324 574 244 q 599 492 600 404 q 583 656 597 581 q 542 785 568 731 q 481 872 517 840 q 401 903 446 903 q 340 883 365 903 q 301 833 315 863 q 282 769 286 804 q 283 704 278 733 q 303 655 288 675 q 342 635 318 635 q 362 639 354 635 q 374 649 369 643 q 383 658 379 654 q 393 663 388 663 q 455 634 435 663 q 471 571 475 606 q 436 508 467 536 q 344 479 406 479 q 235 516 281 479 q 165 607 189 553 q 142 726 142 661 q 170 844 142 790 q 257 935 199 899 q 407 972 315 972 z "},"P":{"ha":824,"x_min":-7,"x_max":867,"o":"m 418 972 q 663 923 565 972 q 810 800 760 874 q 863 641 860 726 q 827 482 867 556 q 707 359 788 408 q 507 310 626 310 l 507 126 q 515 76 507 94 q 533 46 524 57 q 560 28 544 33 l 560 0 l 243 0 l 243 28 q 269 46 257 33 q 288 76 279 57 q 296 126 296 94 l 296 728 q 274 782 296 764 q 228 800 253 800 l 228 822 q 387 829 306 822 q 539 872 468 836 l 554 847 q 531 826 540 840 q 515 796 522 815 q 507 746 507 776 l 507 367 q 581 408 549 367 q 633 510 614 449 q 652 644 651 572 q 628 778 653 717 q 553 881 604 840 q 418 922 503 922 q 274 893 328 922 q 192 824 221 864 q 155 740 164 783 q 146 669 146 697 q 159 603 146 628 q 189 560 172 579 q 219 524 206 542 q 232 479 232 506 q 216 437 232 451 q 172 422 200 422 q 63 463 106 422 q 7 565 21 504 q 9 697 -7 626 q 75 829 25 768 q 210 931 125 890 q 418 972 294 972 z "},"Q":{"ha":822,"x_min":0,"x_max":1146,"o":"m 1078 -53 q 1135 -86 1125 -53 q 1119 -159 1146 -119 q 1032 -232 1093 -199 q 874 -265 971 -265 q 740 -248 799 -265 q 633 -205 682 -231 q 537 -149 583 -179 q 440 -92 490 -118 q 328 -49 389 -67 q 188 -32 267 -32 l 188 11 l 346 11 q 470 53 421 11 q 549 164 519 96 q 589 318 578 232 q 599 492 600 404 q 594 561 599 519 q 582 649 590 603 q 559 740 574 694 q 523 821 544 785 q 472 880 501 857 q 401 903 442 903 q 326 865 361 899 q 265 776 290 832 q 224 644 239 719 q 208 479 208 568 q 216 388 208 439 q 241 292 224 338 q 286 216 258 247 q 354 185 314 185 q 422 217 399 185 q 449 287 446 249 q 435 357 453 325 q 378 389 417 389 q 358 385 365 389 q 344 375 350 381 q 335 365 339 369 q 325 361 331 361 q 263 390 283 361 q 247 453 243 418 q 282 516 251 488 q 374 544 313 544 q 481 508 440 544 q 540 418 522 472 q 552 300 558 364 q 518 182 546 236 q 440 92 490 128 q 318 56 389 56 q 184 87 243 56 q 84 174 125 118 q 22 308 43 231 q 0 475 0 385 q 26 669 0 578 q 105 827 53 760 q 233 933 157 894 q 407 972 308 972 q 581 933 506 972 q 708 827 657 894 q 787 669 760 760 q 814 475 814 578 q 793 305 814 386 q 729 158 772 224 q 620 46 686 92 q 465 -19 554 0 q 606 -74 551 -42 q 700 -135 660 -106 q 776 -184 740 -164 q 861 -204 813 -204 q 940 -181 914 -204 q 983 -128 965 -157 q 1019 -76 1000 -100 q 1078 -53 1039 -53 z "},"R":{"ha":958,"x_min":-7,"x_max":944,"o":"m 428 972 q 630 940 546 972 q 767 856 714 908 q 842 740 819 804 q 858 609 864 675 q 819 483 853 543 q 729 379 786 422 l 871 81 q 899 51 886 61 q 922 35 911 40 q 943 28 933 29 l 944 0 l 640 0 l 638 28 q 658 38 650 31 q 669 54 665 44 q 665 79 672 64 q 638 139 656 101 q 602 214 619 176 q 572 281 585 251 q 557 314 558 310 q 501 310 531 310 l 501 126 q 510 76 501 94 q 528 46 518 57 q 554 28 539 33 l 554 0 l 236 0 l 236 28 q 263 46 251 33 q 282 76 274 57 q 290 126 290 94 l 290 728 q 269 782 290 764 q 222 800 247 800 l 222 822 q 381 829 300 822 q 533 872 463 836 l 549 847 q 525 826 535 840 q 509 796 517 815 q 501 746 501 776 l 501 367 q 577 408 543 367 q 631 510 611 449 q 653 644 651 572 q 634 778 656 717 q 563 881 613 840 q 428 922 513 922 q 283 893 339 922 q 194 824 226 864 q 151 740 163 783 q 140 669 140 697 q 153 603 140 628 q 183 560 167 579 q 213 524 200 542 q 226 479 226 506 q 210 437 226 451 q 167 422 194 422 q 58 463 100 422 q 5 565 17 504 q 11 697 -7 626 q 81 829 29 768 q 218 931 132 890 q 428 972 304 972 z "},"S":{"ha":731,"x_min":-1,"x_max":701,"o":"m 197 771 q 235 689 197 724 q 328 624 272 654 q 449 563 383 593 q 571 495 515 533 q 664 406 626 457 q 701 283 701 356 q 681 169 701 222 q 617 76 661 115 q 504 14 574 36 q 338 -8 435 -8 q 176 14 242 -8 q 72 69 111 36 q 15 140 32 101 q 0 210 -1 178 q 18 265 1 243 q 63 288 35 288 q 117 270 96 288 q 154 227 139 253 q 183 172 169 201 q 215 116 197 142 q 258 73 232 90 q 325 56 285 56 q 390 67 363 56 q 438 97 418 79 q 467 138 457 115 q 476 181 476 160 q 442 269 476 232 q 357 337 408 306 q 245 399 306 368 q 133 468 185 429 q 48 559 82 507 q 14 685 14 611 q 105 897 14 822 q 351 972 196 972 q 493 951 435 972 q 588 899 551 931 q 640 831 624 867 q 656 763 657 794 q 640 710 656 731 q 596 689 624 689 q 540 706 560 689 q 508 747 521 722 q 485 801 494 772 q 458 854 475 829 q 415 896 442 879 q 340 913 388 913 q 278 900 306 913 q 233 867 251 888 q 206 822 215 847 q 197 771 197 796 z "},"T":{"ha":751,"x_min":-7,"x_max":1074,"o":"m 1011 972 q 1059 942 1044 972 q 1065 874 1074 911 q 1019 807 1056 838 q 914 776 983 776 q 789 792 847 776 q 668 825 731 807 l 668 126 q 677 76 669 94 q 696 46 685 57 q 722 28 707 33 l 722 0 l 404 0 l 404 28 q 431 46 419 33 q 449 76 442 57 q 457 126 457 94 l 457 869 q 417 872 438 871 q 376 872 397 872 q 269 851 314 872 q 198 799 225 831 q 158 733 171 768 q 146 669 146 697 q 159 603 146 628 q 189 560 172 579 q 219 524 206 542 q 232 479 232 506 q 216 437 232 451 q 172 422 200 422 q 63 463 106 422 q 7 565 21 504 q 9 697 -7 626 q 75 829 25 768 q 210 931 125 890 q 418 972 294 972 q 528 967 468 972 q 650 954 589 961 q 769 942 711 947 q 872 936 826 936 q 926 942 904 936 q 965 954 949 947 q 993 967 982 961 q 1011 972 1004 972 z "},"U":{"ha":1179,"x_min":-4,"x_max":1150,"o":"m 1150 40 q 1133 21 1144 29 q 1108 6 1124 13 q 1065 0 1092 0 q 997 7 1031 0 q 935 29 963 14 q 887 68 907 44 q 858 125 867 92 q 788 37 833 74 q 668 0 742 0 q 553 22 603 0 q 472 77 504 43 q 422 153 439 111 q 406 238 406 196 l 406 788 q 399 835 406 811 q 377 879 392 860 q 340 910 363 899 q 286 922 318 922 q 237 910 258 922 q 200 877 215 897 q 176 831 185 857 q 168 776 168 804 q 181 710 168 735 q 211 667 194 686 q 241 631 228 649 q 254 588 254 614 q 238 544 254 560 q 193 529 221 529 q 82 562 126 529 q 17 644 38 594 q 1 751 -4 693 q 38 858 6 808 q 130 940 69 907 q 279 972 190 972 q 354 965 322 972 q 412 946 386 957 q 462 922 438 935 q 515 899 486 910 q 578 880 543 888 q 661 872 613 872 l 661 844 q 628 813 639 833 q 617 769 617 793 l 617 301 q 631 215 618 253 q 662 155 640 182 q 724 128 683 128 q 799 160 772 128 q 838 231 826 192 q 854 332 853 275 l 854 746 q 846 797 854 778 q 826 826 838 815 q 800 844 815 839 l 800 872 l 1118 872 l 1118 844 q 1092 826 1103 839 q 1074 797 1082 815 q 1065 746 1065 778 l 1065 124 q 1077 65 1065 81 q 1104 49 1089 49 q 1129 57 1118 49 q 1139 65 1135 61 l 1150 40 z "},"V":{"ha":1021,"x_min":-4,"x_max":1135,"o":"m 913 874 l 1135 874 l 1135 846 q 1104 828 1119 840 q 1079 798 1092 817 q 1058 747 1067 779 l 860 0 l 607 0 l 421 728 l 421 729 l 406 788 q 378 856 394 825 q 340 901 363 881 q 286 922 318 922 q 237 910 258 922 q 200 877 215 897 q 176 831 185 857 q 168 776 168 804 q 181 710 168 735 q 211 667 194 686 q 241 631 228 649 q 254 588 254 614 q 238 544 254 560 q 193 529 221 529 q 82 562 126 529 q 17 644 38 594 q 1 751 -4 693 q 38 858 6 808 q 130 940 69 907 q 279 972 190 972 q 354 965 322 972 q 412 946 386 957 q 462 922 438 935 q 515 899 486 910 q 578 880 543 888 q 661 872 613 872 l 661 843 q 658 842 660 843 q 647 834 654 840 q 631 819 639 828 q 620 797 624 810 q 621 769 617 785 l 783 153 l 940 747 q 944 798 949 779 q 933 828 940 817 q 911 846 925 840 l 913 874 z "},"W":{"ha":1549,"x_min":-4,"x_max":1669,"o":"m 279 972 q 354 965 322 972 q 412 946 386 957 q 462 922 438 935 q 515 899 486 910 q 578 880 543 888 q 661 872 613 872 l 661 843 q 658 842 660 843 q 647 834 654 840 q 631 819 639 828 q 620 797 624 810 q 621 769 617 785 l 783 153 l 940 747 q 944 798 949 779 q 933 828 940 817 q 911 846 925 840 l 913 874 l 1135 874 l 1318 153 l 1475 747 q 1478 798 1482 779 q 1468 828 1475 817 q 1446 846 1460 840 l 1446 874 l 1669 874 l 1669 846 q 1639 828 1654 840 q 1613 798 1626 817 q 1592 747 1600 779 l 1394 0 l 1140 0 l 1006 551 l 860 0 l 607 0 l 421 728 l 421 729 l 406 788 q 378 856 394 825 q 340 901 363 881 q 286 922 318 922 q 237 910 258 922 q 200 877 215 897 q 176 831 185 857 q 168 776 168 804 q 181 710 168 735 q 211 667 194 686 q 241 631 228 649 q 254 588 254 614 q 238 544 254 560 q 193 529 221 529 q 82 562 126 529 q 17 644 38 594 q 1 751 -4 693 q 38 858 6 808 q 130 940 69 907 q 279 972 190 972 z "},"X":{"ha":1074,"x_min":-4,"x_max":1060,"o":"m 279 972 q 354 965 322 972 q 412 946 386 957 q 462 922 438 935 q 515 899 486 910 q 578 880 543 888 q 661 872 613 872 l 661 843 q 659 842 660 843 q 657 842 658 842 q 631 817 647 835 q 621 769 614 799 l 728 575 l 836 781 q 835 813 839 800 q 825 832 831 825 q 808 844 818 840 l 808 872 l 1036 872 l 1036 844 q 1014 829 1026 842 q 987 797 1003 818 q 950 739 971 776 l 949 739 l 793 457 l 972 133 q 1010 76 993 97 q 1038 44 1026 56 q 1060 28 1050 32 l 1060 0 l 719 0 l 719 28 q 736 42 729 32 q 746 61 742 49 q 747 93 750 74 l 633 325 l 510 93 q 511 61 507 74 q 522 42 515 49 q 538 28 528 32 l 538 0 l 310 0 l 310 28 q 332 44 319 32 q 360 76 343 56 q 396 133 376 97 l 397 133 l 572 450 l 406 788 q 383 827 397 804 q 353 871 369 850 q 316 907 336 892 q 275 922 296 922 q 228 910 249 922 q 194 877 208 897 q 174 831 181 857 q 168 776 168 804 q 181 710 168 735 q 211 667 194 686 q 241 631 228 649 q 254 588 254 614 q 238 544 254 560 q 193 529 221 529 q 82 562 126 529 q 17 644 38 594 q 1 751 -4 693 q 38 858 6 808 q 130 940 69 907 q 279 972 190 972 z "},"Y":{"ha":874,"x_min":-4,"x_max":1031,"o":"m 1031 867 l 1031 838 q 1007 822 1021 835 q 980 790 996 811 q 943 732 964 769 l 942 732 l 786 449 l 786 126 q 794 76 786 94 q 813 46 803 57 q 839 28 824 33 l 839 0 l 521 0 l 521 28 q 547 46 536 33 q 567 76 558 57 q 575 126 575 94 l 575 443 l 406 788 q 383 827 397 804 q 353 871 369 850 q 316 907 336 892 q 275 922 296 922 q 228 910 249 922 q 194 877 208 897 q 174 831 181 857 q 168 776 168 804 q 181 710 168 735 q 211 667 194 686 q 241 631 228 649 q 254 588 254 614 q 238 544 254 560 q 193 529 221 529 q 82 562 126 529 q 17 644 38 594 q 1 751 -4 693 q 38 858 6 808 q 130 940 69 907 q 279 972 190 972 q 354 965 322 972 q 412 946 386 957 q 462 922 438 935 q 515 899 486 910 q 578 880 543 888 q 661 872 613 872 l 661 843 q 631 825 642 836 q 615 803 619 817 q 621 769 610 789 l 726 558 l 833 778 q 840 808 843 797 q 828 826 836 819 q 803 838 818 835 l 803 867 l 1031 867 z "},"Z":{"ha":874,"x_min":-7,"x_max":860,"o":"m 603 103 q 697 129 656 103 q 765 188 738 156 q 822 272 799 225 l 856 260 l 774 0 l 13 0 l 8 40 q 61 67 33 49 q 110 110 83 82 q 163 183 138 139 l 436 690 q 460 797 467 747 q 422 879 453 847 q 378 910 403 899 q 324 922 353 922 q 263 911 294 922 q 206 876 232 900 q 164 815 181 851 q 147 728 147 778 q 161 662 147 686 q 191 619 175 638 q 221 582 207 600 q 235 538 235 564 q 218 495 235 510 q 174 481 201 481 q 65 517 107 481 q 8 608 24 553 q 6 726 -7 663 q 58 845 18 790 q 165 936 97 900 q 331 972 233 972 q 457 957 394 972 q 584 923 519 942 q 715 889 649 904 q 854 874 782 874 l 860 832 q 808 807 835 824 q 758 764 785 792 q 706 690 731 736 l 432 183 q 413 138 418 157 q 404 103 407 118 l 603 103 z "},"a":{"ha":683,"x_min":0,"x_max":683,"o":"m 683 44 q 667 24 678 33 q 640 10 657 17 q 597 3 624 3 q 492 23 542 3 q 414 85 442 43 q 387 56 404 72 q 344 27 369 40 q 285 5 319 14 q 207 -4 251 -4 q 115 10 154 -4 q 51 49 76 25 q 13 106 25 74 q 0 174 0 138 q 28 266 0 231 q 100 323 57 301 q 193 356 143 344 q 287 376 243 368 q 360 394 331 385 q 389 421 389 404 l 389 424 q 385 475 389 450 q 373 520 382 500 q 349 553 364 540 q 311 565 335 565 q 274 552 286 565 q 254 520 261 539 q 242 478 247 501 q 230 437 238 456 q 208 405 222 418 q 165 392 193 392 q 113 408 136 392 q 78 448 89 424 q 73 500 67 472 q 107 552 79 528 q 190 592 135 576 q 331 608 244 608 q 444 592 394 608 q 528 549 494 576 q 580 488 563 522 q 597 418 597 454 l 597 128 q 606 70 597 86 q 629 54 614 54 q 654 63 643 54 q 663 69 660 65 l 683 44 m 389 346 q 336 306 371 321 q 265 250 292 288 q 232 176 239 213 q 239 111 225 139 q 288 83 253 83 q 331 97 313 83 q 363 129 350 111 q 388 174 376 149 l 389 346 z "},"b":{"ha":738,"x_min":6,"x_max":710,"o":"m 463 608 q 599 563 544 608 q 682 450 654 518 q 709 302 710 382 q 679 154 708 222 q 592 41 650 86 q 447 -4 535 -4 q 324 15 368 -4 q 258 61 281 35 q 182 17 226 32 q 90 3 138 3 q 49 10 65 3 q 22 24 32 17 q 6 44 11 33 l 18 69 q 26 61 22 65 q 38 56 32 58 q 51 53 44 53 q 80 68 68 53 q 92 128 92 83 l 92 731 q 69 785 92 767 q 24 803 47 803 l 24 826 q 183 833 101 826 q 335 876 264 840 l 350 851 q 326 831 336 844 q 310 800 318 819 q 303 750 303 781 l 303 554 q 367 592 328 576 q 463 608 406 608 m 390 69 q 444 103 422 69 q 476 187 465 136 q 488 296 488 238 q 478 405 488 354 q 447 489 468 456 q 396 522 426 522 q 346 490 364 522 q 318 419 328 458 q 303 317 307 374 l 303 261 q 306 208 303 240 q 319 145 310 176 q 344 92 328 114 q 390 69 361 69 z "},"c":{"ha":640,"x_min":0,"x_max":619,"o":"m 619 171 q 553 83 594 122 q 458 24 517 51 q 313 -4 400 -4 q 140 41 210 -4 q 35 154 71 86 q 0 302 0 222 q 38 450 0 382 q 150 563 75 518 q 340 608 225 608 q 440 597 394 608 q 519 566 486 586 q 571 517 553 546 q 589 454 589 489 q 572 406 589 429 q 525 383 556 383 q 480 394 496 383 q 454 422 464 406 q 438 458 444 439 q 424 494 432 478 q 402 522 415 511 q 364 533 389 533 q 290 503 321 533 q 242 428 260 474 q 223 331 225 383 q 236 233 221 278 q 285 158 251 188 q 372 128 318 128 q 463 138 422 128 q 532 161 503 149 q 590 194 564 176 l 619 171 z "},"d":{"ha":721,"x_min":-3,"x_max":721,"o":"m 258 608 q 358 591 318 608 q 424 550 397 574 l 424 732 q 403 786 424 768 q 358 804 382 804 l 358 826 q 517 833 436 826 q 669 878 599 840 l 683 851 q 660 831 669 844 q 642 800 650 819 q 635 750 635 781 l 635 128 q 645 65 635 78 q 671 51 656 51 q 693 61 686 51 q 700 69 697 64 l 721 44 q 703 25 715 33 q 677 10 693 17 q 635 4 661 4 q 538 19 586 4 q 457 67 489 35 q 381 17 431 39 q 249 -4 332 -4 q 106 41 161 -4 q 24 154 50 86 q 0 302 -3 222 q 33 450 3 382 q 120 563 64 518 q 258 608 176 608 m 306 69 q 347 86 329 69 q 378 126 365 103 q 401 178 392 150 q 415 231 410 207 q 422 270 419 254 q 424 285 424 286 l 424 317 q 406 419 418 374 q 376 490 394 458 q 325 522 357 522 q 272 489 294 522 q 237 405 250 456 q 221 295 224 354 q 226 186 218 236 q 254 103 235 136 q 306 69 274 69 z "},"e":{"ha":640,"x_min":0,"x_max":619,"o":"m 619 171 q 553 83 594 122 q 458 24 517 51 q 313 -4 400 -4 q 140 41 210 -4 q 35 154 71 86 q 0 302 0 222 q 38 450 0 382 q 150 563 75 518 q 340 608 225 608 q 440 597 394 608 q 519 566 486 586 q 571 517 553 546 q 589 454 589 489 q 555 369 589 408 q 469 300 521 331 q 357 249 418 269 q 242 218 296 228 q 290 153 258 178 q 372 128 322 128 q 463 138 422 128 q 532 161 503 149 q 590 194 564 176 l 619 171 m 364 533 q 296 509 325 533 q 249 447 267 485 q 226 363 232 408 q 226 272 219 317 q 324 337 281 293 q 388 424 367 381 q 406 501 410 468 q 364 533 401 533 z "},"f":{"ha":350,"x_min":-17,"x_max":553,"o":"m 61 608 l 61 636 q 78 738 61 692 q 129 817 96 783 q 212 869 163 850 q 325 888 261 888 q 431 872 388 888 q 502 831 475 856 q 541 778 529 806 q 551 725 553 750 q 534 684 549 700 q 493 668 519 668 q 443 679 460 668 q 418 708 426 690 q 406 745 410 725 q 397 783 403 765 q 380 811 392 800 q 343 822 368 822 q 325 818 333 822 q 296 788 307 810 q 279 735 285 765 q 272 672 274 706 q 271 608 271 639 l 381 608 l 381 544 l 272 544 l 272 132 q 281 81 272 100 q 299 50 289 61 q 325 32 310 38 l 325 4 l 7 4 l 7 32 q 33 50 22 38 q 53 80 44 61 q 61 129 61 99 l 61 544 l -17 544 l -17 608 l 61 608 z "},"g":{"ha":640,"x_min":0,"x_max":631,"o":"m 149 135 q 184 96 149 106 q 274 83 219 86 q 390 79 328 81 q 506 65 451 78 q 595 21 560 51 q 631 -71 631 -10 q 616 -128 631 -97 q 567 -187 601 -160 q 475 -232 532 -214 q 333 -250 418 -250 q 188 -235 249 -250 q 90 -197 128 -221 q 34 -144 51 -174 q 17 -85 17 -114 q 26 -40 17 -58 q 47 -7 35 -21 q 21 61 21 22 q 28 108 21 88 q 48 143 36 128 q 73 169 60 158 q 97 186 86 179 q 25 267 50 219 q 0 368 0 314 q 21 462 0 418 q 81 538 42 506 q 178 590 121 571 q 311 608 236 608 q 351 606 332 608 q 389 601 369 604 q 403 646 393 621 q 429 693 413 671 q 472 730 446 715 q 532 744 497 744 q 599 722 576 744 q 624 670 621 699 q 615 619 628 642 q 572 596 601 596 q 564 597 568 596 q 554 599 560 597 q 508 606 526 606 q 475 600 489 606 q 450 588 461 594 q 579 500 535 558 q 624 368 624 442 q 604 274 624 318 q 545 197 585 231 q 447 145 506 164 q 311 126 389 126 q 228 134 267 126 q 157 154 189 142 q 149 135 149 146 m 307 540 q 220 492 253 538 q 190 369 188 446 q 199 310 192 340 q 221 253 206 279 q 260 211 236 228 q 317 194 283 194 q 401 248 371 197 q 431 375 432 299 q 423 433 429 404 q 402 487 417 463 q 364 526 388 511 q 307 540 340 540 m 96 -79 q 114 -121 96 -104 q 161 -148 132 -137 q 227 -163 190 -158 q 301 -168 264 -168 q 372 -165 338 -168 q 431 -155 406 -161 q 473 -140 457 -149 q 489 -121 489 -131 q 470 -103 489 -110 q 420 -93 451 -97 q 349 -87 389 -89 q 266 -81 308 -85 q 182 -69 224 -76 q 107 -47 140 -61 q 96 -79 96 -62 z "},"h":{"ha":719,"x_min":-7,"x_max":701,"o":"m 304 876 l 318 851 q 294 831 304 844 q 278 800 286 819 q 271 750 271 781 l 271 535 q 292 560 279 547 q 324 583 304 572 q 371 601 343 594 q 436 608 399 608 q 542 584 501 608 q 606 523 583 560 q 638 442 629 486 q 647 358 647 399 l 647 131 q 656 80 649 99 q 675 50 664 61 q 701 32 686 38 l 701 4 l 383 4 l 383 32 q 410 50 399 38 q 428 80 421 61 q 436 131 436 99 l 436 376 q 416 478 436 444 q 369 511 396 511 q 328 492 346 511 q 297 446 310 474 q 278 385 285 418 q 271 325 271 353 l 271 131 q 280 80 272 99 q 297 50 288 61 q 324 32 310 38 l 324 4 l 7 4 l 7 32 q 33 50 22 38 q 52 80 44 61 q 60 131 60 99 l 60 731 q 38 785 60 767 q -7 803 17 803 l -7 826 q 152 833 71 826 q 304 876 233 840 z "},"i":{"ha":336,"x_min":-7,"x_max":324,"o":"m 271 131 q 280 81 271 100 q 299 50 289 61 q 316 35 308 39 q 324 32 324 32 l 324 4 l 7 4 l 7 32 q 33 50 22 38 q 52 80 44 61 q 60 131 60 99 l 60 489 q 38 543 60 525 q -7 561 17 561 l -7 583 q 152 590 71 583 q 304 635 233 597 l 318 608 q 294 588 304 601 q 278 557 286 576 q 271 507 271 538 l 271 131 m 165 650 q 119 660 140 650 q 81 685 97 669 q 56 723 65 701 q 46 769 46 744 q 56 817 46 794 q 81 855 65 839 q 119 881 97 871 q 165 890 140 890 q 251 855 215 890 q 286 769 286 819 q 276 723 286 744 q 251 685 267 701 q 213 660 235 669 q 165 650 190 650 z "},"j":{"ha":307,"x_min":-232,"x_max":307,"o":"m 307 608 q 283 588 293 601 q 267 557 275 576 q 260 507 260 538 l 260 6 q 242 -97 260 -50 q 192 -180 225 -144 q 109 -235 158 -215 q -4 -256 60 -256 q -110 -240 -67 -256 q -181 -199 -154 -224 q -220 -146 -208 -174 q -230 -93 -232 -118 q -213 -52 -228 -68 q -174 -36 -199 -36 q -123 -47 -140 -36 q -97 -76 -106 -58 q -85 -113 -89 -93 q -76 -151 -82 -133 q -60 -179 -71 -168 q -24 -190 -49 -190 q 22 -158 7 -190 q 43 -81 38 -125 q 49 10 49 -36 q 49 85 49 57 l 49 490 q 26 544 47 526 q -18 561 6 561 l -18 583 q 141 591 60 583 q 293 635 222 599 l 307 608 m 147 650 q 101 660 122 650 q 63 685 79 669 q 38 723 47 701 q 28 769 28 744 q 38 817 28 794 q 63 855 47 839 q 101 881 79 871 q 147 890 122 890 q 233 855 197 890 q 268 769 268 819 q 258 723 268 744 q 233 685 249 701 q 194 660 217 669 q 147 650 172 650 z "},"k":{"ha":721,"x_min":-7,"x_max":707,"o":"m 304 876 l 318 851 q 294 831 304 844 q 278 800 286 819 q 271 750 271 781 l 271 308 q 342 400 308 353 q 392 486 376 447 q 399 551 408 525 q 340 576 390 576 l 340 604 l 658 604 l 658 576 q 635 571 647 575 q 611 563 624 568 q 585 549 599 558 q 519 489 558 531 q 438 396 481 447 l 640 85 q 666 54 654 65 q 686 38 678 43 q 707 32 697 32 l 707 4 l 390 4 l 390 32 q 415 44 406 36 q 428 60 424 51 q 421 83 432 69 q 397 117 411 97 q 367 159 382 138 q 338 202 353 181 q 313 240 324 224 q 271 186 290 210 l 271 131 q 280 80 272 99 q 297 50 288 61 q 324 32 310 38 l 324 4 l 7 4 l 7 32 q 33 50 22 38 q 52 80 44 61 q 60 131 60 99 l 60 731 q 38 785 60 767 q -7 803 17 803 l -7 826 q 152 833 71 826 q 304 876 233 840 z "},"l":{"ha":338,"x_min":-7,"x_max":324,"o":"m 271 131 q 280 81 271 100 q 299 50 289 61 q 316 35 308 39 q 324 32 324 32 l 324 4 l 7 4 l 7 32 q 33 50 22 38 q 52 80 44 61 q 60 131 60 99 l 60 731 q 38 785 60 767 q -7 803 17 803 l -7 826 q 152 833 71 826 q 304 876 233 840 l 318 851 q 294 831 304 844 q 278 800 286 819 q 271 750 271 781 l 271 131 z "},"m":{"ha":1065,"x_min":-7,"x_max":1051,"o":"m 304 635 l 318 608 q 301 594 308 603 q 287 574 294 588 q 275 542 279 561 q 329 587 292 565 q 436 608 367 608 q 546 581 504 608 q 611 514 588 554 q 626 541 615 525 q 656 572 636 557 q 708 597 676 586 q 786 608 739 608 q 892 584 851 608 q 956 523 933 560 q 988 442 979 486 q 997 358 997 399 l 997 131 q 1006 80 999 99 q 1025 50 1014 61 q 1051 32 1036 38 l 1051 4 l 733 4 l 733 32 q 760 50 749 38 q 778 80 771 61 q 786 131 786 99 l 786 376 q 767 478 786 444 q 719 511 747 511 q 672 487 692 511 q 640 429 653 463 q 647 358 647 390 l 647 131 q 656 80 647 99 q 674 50 664 61 q 700 32 685 38 l 700 4 l 382 4 l 382 32 q 408 50 397 38 q 428 80 419 61 q 436 131 436 99 l 436 376 q 416 478 436 444 q 368 511 396 511 q 330 495 347 511 q 300 455 313 479 q 281 401 288 431 q 271 346 274 372 l 271 131 q 280 80 272 99 q 297 50 288 61 q 324 32 310 38 l 324 4 l 7 4 l 7 32 q 33 50 22 38 q 52 80 44 61 q 60 131 60 99 l 60 489 q 38 543 60 525 q -7 561 17 561 l -7 583 q 152 590 69 583 q 304 635 235 597 z "},"n":{"ha":714,"x_min":-7,"x_max":700,"o":"m 304 635 l 318 608 q 301 594 308 603 q 287 574 294 588 q 275 542 279 561 q 329 587 292 565 q 436 608 367 608 q 541 584 500 608 q 606 523 582 560 q 638 442 629 486 q 647 358 647 399 l 647 131 q 656 80 647 99 q 674 50 664 61 q 700 32 685 38 l 700 4 l 382 4 l 382 32 q 408 50 397 38 q 428 80 419 61 q 436 131 436 99 l 436 376 q 416 478 436 444 q 368 511 396 511 q 330 495 347 511 q 300 455 313 479 q 281 401 288 431 q 271 346 274 372 l 271 131 q 280 80 272 99 q 297 50 288 61 q 324 32 310 38 l 324 4 l 7 4 l 7 32 q 33 50 22 38 q 52 80 44 61 q 60 131 60 99 l 60 489 q 38 543 60 525 q -7 561 17 561 l -7 583 q 152 590 69 583 q 304 635 235 597 z "},"o":{"ha":638,"x_min":0,"x_max":624,"o":"m 311 615 q 444 591 386 615 q 542 524 503 567 q 603 426 582 482 q 624 306 624 369 q 604 185 624 242 q 545 87 585 129 q 447 20 506 44 q 311 -4 389 -4 q 181 20 239 -4 q 83 87 122 44 q 22 185 43 129 q 0 306 0 242 q 21 426 0 369 q 81 524 42 482 q 178 591 121 567 q 311 615 236 615 m 317 67 q 367 90 344 69 q 406 144 389 110 q 431 222 422 178 q 439 314 440 265 q 432 382 439 343 q 410 456 425 421 q 370 517 396 492 q 307 542 344 542 q 256 522 281 540 q 215 472 232 503 q 188 399 197 440 q 179 308 178 357 q 187 238 179 279 q 210 159 194 197 q 253 94 226 121 q 317 67 279 67 z "},"p":{"ha":683,"x_min":-22,"x_max":663,"o":"m -22 561 l -22 583 q 137 590 56 583 q 289 635 218 597 l 303 608 q 289 599 296 604 q 277 585 283 593 q 265 563 271 576 q 328 595 292 582 q 417 608 365 608 q 553 563 499 608 q 635 450 608 518 q 663 302 663 382 q 633 154 663 222 q 546 41 604 86 q 400 -4 488 -4 q 316 4 351 -4 q 256 26 281 13 l 256 -122 q 265 -173 257 -154 q 282 -203 272 -192 q 308 -221 294 -215 l 308 -250 l -8 -250 l -8 -221 q 18 -203 7 -215 q 37 -173 29 -192 q 44 -122 44 -154 l 44 489 q 23 543 44 525 q -22 561 1 561 m 256 256 q 260 201 257 233 q 274 140 264 169 q 300 90 283 111 q 344 69 317 69 q 398 103 376 69 q 430 187 419 136 q 441 296 440 238 q 431 405 442 354 q 401 489 421 456 q 350 522 381 522 q 303 494 321 522 q 274 430 285 465 q 260 362 264 394 q 256 319 256 329 l 256 256 z "},"q":{"ha":688,"x_min":-3,"x_max":688,"o":"m 258 608 q 326 601 297 608 q 379 581 356 593 q 526 590 451 581 q 668 632 601 599 l 682 607 q 658 586 668 600 q 642 555 650 575 q 635 504 635 535 l 635 -125 q 643 -176 635 -157 q 661 -206 651 -194 q 688 -224 672 -218 l 688 -251 l 371 -251 l 371 -224 q 397 -206 385 -218 q 415 -176 407 -194 q 424 -125 424 -157 l 424 39 q 353 8 396 21 q 249 -4 311 -4 q 106 41 161 -4 q 24 154 50 86 q 0 302 -3 222 q 33 450 3 382 q 120 563 64 518 q 258 608 176 608 m 306 69 q 347 86 329 69 q 378 126 365 103 q 401 178 392 150 q 415 231 410 207 q 422 270 419 254 q 424 285 424 286 l 424 338 q 420 388 424 357 q 406 449 417 419 q 377 501 396 479 q 326 522 358 522 q 273 489 296 522 q 237 405 250 456 q 221 295 224 354 q 226 186 218 236 q 254 103 235 136 q 306 69 274 69 z "},"r":{"ha":606,"x_min":-7,"x_max":604,"o":"m -7 583 q 152 590 71 583 q 304 635 233 597 l 318 608 q 294 588 304 601 q 278 557 286 576 q 271 507 271 538 l 271 501 q 326 576 290 543 q 424 608 361 608 q 558 567 513 608 q 604 454 604 525 q 588 406 604 429 q 540 383 571 383 q 481 405 497 383 q 458 452 465 426 q 442 499 451 478 q 403 521 433 521 q 362 504 385 521 q 319 454 339 488 q 285 372 299 421 q 271 257 271 322 l 271 131 q 280 80 272 99 q 297 50 288 61 q 324 32 310 38 l 324 4 l 7 4 l 7 32 q 33 50 22 38 q 52 80 44 61 q 60 131 60 99 l 60 489 q 38 543 60 525 q -7 561 17 561 l -7 583 z "},"s":{"ha":536,"x_min":0,"x_max":511,"o":"m 144 489 q 172 445 144 464 q 240 409 199 426 q 328 374 281 392 q 416 329 375 356 q 484 267 457 303 q 511 179 511 231 q 497 107 511 140 q 452 49 483 74 q 369 9 421 24 q 243 -6 318 -6 q 131 8 176 -6 q 57 43 85 22 q 17 89 29 64 q 6 135 6 114 q 19 169 7 156 q 50 183 31 183 q 103 165 86 183 q 135 126 119 147 q 171 86 150 104 q 235 68 192 68 q 314 83 288 68 q 340 114 340 99 q 315 149 340 135 q 252 178 290 164 q 170 212 214 193 q 88 259 126 231 q 25 330 50 288 q 0 433 0 372 q 19 510 0 476 q 72 568 39 544 q 152 604 106 592 q 253 617 199 617 q 389 588 340 617 q 455 526 438 560 q 463 465 472 493 q 424 436 453 436 q 369 452 386 436 q 338 488 353 468 q 300 523 322 507 q 228 539 278 539 q 162 521 179 539 q 144 489 144 503 z "},"t":{"ha":367,"x_min":-61,"x_max":353,"o":"m 353 65 q 322 35 340 47 q 284 13 307 22 q 229 3 261 3 q 155 13 190 3 q 92 42 119 22 q 49 94 65 63 q 32 167 33 125 l 32 544 l -61 544 l -61 608 l -36 608 q 74 647 26 608 q 153 731 121 685 q 218 851 190 783 l 243 851 l 243 608 l 336 608 l 336 544 l 243 544 l 243 128 q 256 78 243 92 q 286 65 269 65 q 306 69 297 65 q 319 78 314 74 q 332 90 326 83 l 353 65 z "},"u":{"ha":706,"x_min":-22,"x_max":706,"o":"m -22 581 l -22 608 l 294 608 l 294 581 q 268 563 281 575 q 251 533 258 551 q 242 482 243 514 l 242 235 q 262 135 242 168 q 310 101 282 101 q 347 117 331 101 q 376 157 364 133 q 397 210 389 181 q 407 267 404 240 l 407 482 q 399 533 407 514 q 379 563 390 551 q 353 581 368 575 l 353 608 l 671 608 l 671 581 q 644 563 656 575 q 626 533 635 551 q 618 482 618 514 l 618 128 q 626 70 618 86 q 651 54 635 54 q 676 63 665 54 q 686 69 682 65 l 706 44 q 686 24 699 33 q 655 10 675 17 q 603 3 635 3 q 492 27 542 3 q 419 103 442 51 q 408 78 417 94 q 378 44 399 61 q 325 16 358 28 q 242 4 292 4 q 136 28 178 4 q 72 90 94 53 q 40 171 49 126 q 31 254 31 215 l 31 482 q 23 533 31 514 q 4 563 15 551 q -22 581 -7 575 z "},"v":{"ha":724,"x_min":0,"x_max":739,"o":"m 0 581 l 0 608 l 350 608 l 349 581 q 318 564 329 576 q 306 534 308 553 q 319 482 304 515 l 424 264 l 536 490 q 544 540 551 522 q 522 567 538 557 q 479 581 506 576 l 479 608 l 739 608 l 739 581 q 693 572 715 581 q 656 551 675 565 q 625 510 636 538 l 386 4 l 358 4 l 101 507 q 60 557 85 533 q 0 581 35 581 z "},"w":{"ha":1115,"x_min":0,"x_max":1138,"o":"m 0 581 l 0 608 l 350 608 l 349 581 q 318 564 329 576 q 306 534 308 553 q 319 482 304 515 l 424 264 l 522 461 l 499 507 q 457 557 482 533 q 399 581 432 581 l 399 608 l 747 608 l 747 581 q 717 564 728 576 q 705 534 707 553 q 718 482 703 515 l 822 264 l 935 490 q 943 540 950 522 q 921 567 936 557 q 878 581 904 576 l 878 608 l 1138 608 l 1138 581 q 1092 572 1114 581 q 1054 551 1074 565 q 1024 510 1035 538 l 783 4 l 757 4 l 564 381 l 386 4 l 358 4 l 101 507 q 60 557 85 533 q 0 581 35 581 z "},"x":{"ha":689,"x_min":7,"x_max":682,"o":"m 7 581 l 7 608 l 325 608 l 324 581 q 310 563 313 575 q 312 533 307 551 q 336 482 317 514 l 382 411 l 421 489 q 429 539 436 521 q 407 567 422 557 q 364 581 390 576 l 364 608 l 682 608 l 682 581 q 614 563 647 575 q 556 533 586 551 q 504 482 525 514 l 429 338 l 564 131 q 606 81 585 100 q 643 50 626 61 q 670 35 660 39 q 681 32 681 32 l 682 4 l 364 4 l 364 32 q 378 47 374 36 q 379 72 381 56 q 364 113 378 88 q 358 121 361 117 q 353 131 356 125 l 304 206 l 271 131 q 267 76 260 96 q 288 46 274 57 q 325 32 303 35 l 324 4 l 7 4 l 7 32 q 74 50 42 38 q 132 80 101 61 q 182 131 163 99 l 256 281 l 125 482 q 83 533 104 514 q 46 563 63 551 q 7 581 25 575 z "},"y":{"ha":667,"x_min":-4,"x_max":739,"o":"m 86 -87 q 126 -93 111 -87 q 152 -105 142 -99 q 172 -116 163 -111 q 196 -121 182 -121 q 222 -105 207 -121 q 253 -63 236 -89 q 290 -3 271 -37 q 328 65 310 31 l 101 507 q 60 557 85 533 q 0 581 35 581 l 0 608 l 349 608 l 349 581 q 318 564 329 576 q 306 534 308 553 q 319 482 304 515 l 424 264 l 536 490 q 544 540 551 522 q 522 567 538 557 q 479 581 506 576 l 479 608 l 739 608 l 739 581 q 693 572 715 581 q 656 551 675 565 q 625 510 636 538 l 386 4 q 311 -124 351 -68 q 260 -185 289 -156 q 198 -233 231 -215 q 129 -251 165 -251 q 29 -226 60 -251 q -3 -169 -1 -200 q 21 -113 -4 -139 q 86 -87 46 -87 z "},"z":{"ha":643,"x_min":4,"x_max":618,"o":"m 440 75 q 505 93 476 75 q 553 135 533 111 q 592 193 575 160 l 615 183 l 558 4 l 7 4 l 4 32 q 40 50 22 38 q 75 80 56 61 q 111 131 94 99 l 300 482 q 314 513 310 500 q 319 538 318 526 l 218 538 q 148 519 182 538 q 88 479 114 501 q 32 419 58 453 l 10 429 l 67 608 l 614 608 l 618 581 q 582 563 600 575 q 548 533 567 551 q 511 482 529 514 l 322 131 q 308 99 313 113 q 303 75 304 86 l 440 75 z "}," ":{"ha":732,"x_min":69,"x_max":663,"o":"m 663 972 l 663 0 l 69 0 l 69 972 l 663 972 m 365 515 l 624 944 l 108 944 l 365 515 m 99 903 l 99 68 l 349 486 l 99 903 m 110 29 l 624 29 l 367 457 l 110 29 m 635 65 l 635 906 l 383 486 l 635 65 z "},"­":{"ha":732,"x_min":69,"x_max":663,"o":"m 663 972 l 663 0 l 69 0 l 69 972 l 663 972 m 365 515 l 624 944 l 108 944 l 365 515 m 99 903 l 99 68 l 349 486 l 99 903 m 110 29 l 624 29 l 367 457 l 110 29 m 635 65 l 635 906 l 383 486 l 635 65 z "},"":{"ha":732,"x_min":69,"x_max":663,"o":"m 663 972 l 663 0 l 69 0 l 69 972 l 663 972 m 365 515 l 624 944 l 108 944 l 365 515 m 99 903 l 99 68 l 349 486 l 99 903 m 110 29 l 624 29 l 367 457 l 110 29 m 635 65 l 635 906 l 383 486 l 635 65 z "},"":{"ha":732,"x_min":69,"x_max":663,"o":"m 663 972 l 663 0 l 69 0 l 69 972 l 663 972 m 365 515 l 624 944 l 108 944 l 365 515 m 99 903 l 99 68 l 349 486 l 99 903 m 110 29 l 624 29 l 367 457 l 110 29 m 635 65 l 635 906 l 383 486 l 635 65 z "},"":{"ha":732,"x_min":69,"x_max":663,"o":"m 663 972 l 663 0 l 69 0 l 69 972 l 663 972 m 365 515 l 624 944 l 108 944 l 365 515 m 99 903 l 99 68 l 349 486 l 99 903 m 110 29 l 624 29 l 367 457 l 110 29 m 635 65 l 635 906 l 383 486 l 635 65 z "},"✁":{"ha":732,"x_min":69,"x_max":663,"o":"m 663 972 l 663 0 l 69 0 l 69 972 l 663 972 m 365 515 l 624 944 l 108 944 l 365 515 m 99 903 l 99 68 l 349 486 l 99 903 m 110 29 l 624 29 l 367 457 l 110 29 m 635 65 l 635 906 l 383 486 l 635 65 z "},"":{"ha":732,"x_min":69,"x_max":663,"o":"m 663 972 l 663 0 l 69 0 l 69 972 l 663 972 m 365 515 l 624 944 l 108 944 l 365 515 m 99 903 l 99 68 l 349 486 l 99 903 m 110 29 l 624 29 l 367 457 l 110 29 m 635 65 l 635 906 l 383 486 l 635 65 z "},"":{"ha":732,"x_min":69,"x_max":663,"o":"m 663 972 l 663 0 l 69 0 l 69 972 l 663 972 m 365 515 l 624 944 l 108 944 l 365 515 m 99 903 l 99 68 l 349 486 l 99 903 m 110 29 l 624 29 l 367 457 l 110 29 m 635 65 l 635 906 l 383 486 l 635 65 z "},"":{"ha":732,"x_min":69,"x_max":663,"o":"m 663 972 l 663 0 l 69 0 l 69 972 l 663 972 m 365 515 l 624 944 l 108 944 l 365 515 m 99 903 l 99 68 l 349 486 l 99 903 m 110 29 l 624 29 l 367 457 l 110 29 m 635 65 l 635 906 l 383 486 l 635 65 z "},"":{"ha":732,"x_min":69,"x_max":663,"o":"m 663 972 l 663 0 l 69 0 l 69 972 l 663 972 m 365 515 l 624 944 l 108 944 l 365 515 m 99 903 l 99 68 l 349 486 l 99 903 m 110 29 l 624 29 l 367 457 l 110 29 m 635 65 l 635 906 l 383 486 l 635 65 z "},"":{"ha":732,"x_min":69,"x_max":663,"o":"m 663 972 l 663 0 l 69 0 l 69 972 l 663 972 m 365 515 l 624 944 l 108 944 l 365 515 m 99 903 l 99 68 l 349 486 l 99 903 m 110 29 l 624 29 l 367 457 l 110 29 m 635 65 l 635 906 l 383 486 l 635 65 z "},"":{"ha":732,"x_min":69,"x_max":663,"o":"m 663 972 l 663 0 l 69 0 l 69 972 l 663 972 m 365 515 l 624 944 l 108 944 l 365 515 m 99 903 l 99 68 l 349 486 l 99 903 m 110 29 l 624 29 l 367 457 l 110 29 m 635 65 l 635 906 l 383 486 l 635 65 z "},"":{"ha":732,"x_min":69,"x_max":663,"o":"m 663 972 l 663 0 l 69 0 l 69 972 l 663 972 m 365 515 l 624 944 l 108 944 l 365 515 m 99 903 l 99 68 l 349 486 l 99 903 m 110 29 l 624 29 l 367 457 l 110 29 m 635 65 l 635 906 l 383 486 l 635 65 z "},"":{"ha":732,"x_min":69,"x_max":663,"o":"m 663 972 l 663 0 l 69 0 l 69 972 l 663 972 m 365 515 l 624 944 l 108 944 l 365 515 m 99 903 l 99 68 l 349 486 l 99 903 m 110 29 l 624 29 l 367 457 l 110 29 m 635 65 l 635 906 l 383 486 l 635 65 z "},"":{"ha":732,"x_min":69,"x_max":663,"o":"m 663 972 l 663 0 l 69 0 l 69 972 l 663 972 m 365 515 l 624 944 l 108 944 l 365 515 m 99 903 l 99 68 l 349 486 l 99 903 m 110 29 l 624 29 l 367 457 l 110 29 m 635 65 l 635 906 l 383 486 l 635 65 z "},"":{"ha":732,"x_min":69,"x_max":663,"o":"m 663 972 l 663 0 l 69 0 l 69 972 l 663 972 m 365 515 l 624 944 l 108 944 l 365 515 m 99 903 l 99 68 l 349 486 l 99 903 m 110 29 l 624 29 l 367 457 l 110 29 m 635 65 l 635 906 l 383 486 l 635 65 z "},"":{"ha":732,"x_min":69,"x_max":663,"o":"m 663 972 l 663 0 l 69 0 l 69 972 l 663 972 m 365 515 l 624 944 l 108 944 l 365 515 m 99 903 l 99 68 l 349 486 l 99 903 m 110 29 l 624 29 l 367 457 l 110 29 m 635 65 l 635 906 l 383 486 l 635 65 z "},"":{"ha":732,"x_min":69,"x_max":663,"o":"m 663 972 l 663 0 l 69 0 l 69 972 l 663 972 m 365 515 l 624 944 l 108 944 l 365 515 m 99 903 l 99 68 l 349 486 l 99 903 m 110 29 l 624 29 l 367 457 l 110 29 m 635 65 l 635 906 l 383 486 l 635 65 z "},"":{"ha":732,"x_min":69,"x_max":663,"o":"m 663 972 l 663 0 l 69 0 l 69 972 l 663 972 m 365 515 l 624 944 l 108 944 l 365 515 m 99 903 l 99 68 l 349 486 l 99 903 m 110 29 l 624 29 l 367 457 l 110 29 m 635 65 l 635 906 l 383 486 l 635 65 z "},"":{"ha":732,"x_min":69,"x_max":663,"o":"m 663 972 l 663 0 l 69 0 l 69 972 l 663 972 m 365 515 l 624 944 l 108 944 l 365 515 m 99 903 l 99 68 l 349 486 l 99 903 m 110 29 l 624 29 l 367 457 l 110 29 m 635 65 l 635 906 l 383 486 l 635 65 z "},"":{"ha":732,"x_min":69,"x_max":663,"o":"m 663 972 l 663 0 l 69 0 l 69 972 l 663 972 m 365 515 l 624 944 l 108 944 l 365 515 m 99 903 l 99 68 l 349 486 l 99 903 m 110 29 l 624 29 l 367 457 l 110 29 m 635 65 l 635 906 l 383 486 l 635 65 z "},"":{"ha":732,"x_min":69,"x_max":663,"o":"m 663 972 l 663 0 l 69 0 l 69 972 l 663 972 m 365 515 l 624 944 l 108 944 l 365 515 m 99 903 l 99 68 l 349 486 l 99 903 m 110 29 l 624 29 l 367 457 l 110 29 m 635 65 l 635 906 l 383 486 l 635 65 z "},"":{"ha":732,"x_min":69,"x_max":663,"o":"m 663 972 l 663 0 l 69 0 l 69 972 l 663 972 m 365 515 l 624 944 l 108 944 l 365 515 m 99 903 l 99 68 l 349 486 l 99 903 m 110 29 l 624 29 l 367 457 l 110 29 m 635 65 l 635 906 l 383 486 l 635 65 z "},"\u0001":{"ha":732,"x_min":69,"x_max":663,"o":"m 663 972 l 663 0 l 69 0 l 69 972 l 663 972 m 365 515 l 624 944 l 108 944 l 365 515 m 99 903 l 99 68 l 349 486 l 99 903 m 110 29 l 624 29 l 367 457 l 110 29 m 635 65 l 635 906 l 383 486 l 635 65 z "},"":{"ha":732,"x_min":69,"x_max":663,"o":"m 663 972 l 663 0 l 69 0 l 69 972 l 663 972 m 365 515 l 624 944 l 108 944 l 365 515 m 99 903 l 99 68 l 349 486 l 99 903 m 110 29 l 624 29 l 367 457 l 110 29 m 635 65 l 635 906 l 383 486 l 635 65 z "},"":{"ha":732,"x_min":69,"x_max":663,"o":"m 663 972 l 663 0 l 69 0 l 69 972 l 663 972 m 365 515 l 624 944 l 108 944 l 365 515 m 99 903 l 99 68 l 349 486 l 99 903 m 110 29 l 624 29 l 367 457 l 110 29 m 635 65 l 635 906 l 383 486 l 635 65 z "},"":{"ha":732,"x_min":69,"x_max":663,"o":"m 663 972 l 663 0 l 69 0 l 69 972 l 663 972 m 365 515 l 624 944 l 108 944 l 365 515 m 99 903 l 99 68 l 349 486 l 99 903 m 110 29 l 624 29 l 367 457 l 110 29 m 635 65 l 635 906 l 383 486 l 635 65 z "},"":{"ha":732,"x_min":69,"x_max":663,"o":"m 663 972 l 663 0 l 69 0 l 69 972 l 663 972 m 365 515 l 624 944 l 108 944 l 365 515 m 99 903 l 99 68 l 349 486 l 99 903 m 110 29 l 624 29 l 367 457 l 110 29 m 635 65 l 635 906 l 383 486 l 635 65 z "},"":{"ha":732,"x_min":69,"x_max":663,"o":"m 663 972 l 663 0 l 69 0 l 69 972 l 663 972 m 365 515 l 624 944 l 108 944 l 365 515 m 99 903 l 99 68 l 349 486 l 99 903 m 110 29 l 624 29 l 367 457 l 110 29 m 635 65 l 635 906 l 383 486 l 635 65 z "},"":{"ha":732,"x_min":69,"x_max":663,"o":"m 663 972 l 663 0 l 69 0 l 69 972 l 663 972 m 365 515 l 624 944 l 108 944 l 365 515 m 99 903 l 99 68 l 349 486 l 99 903 m 110 29 l 624 29 l 367 457 l 110 29 m 635 65 l 635 906 l 383 486 l 635 65 z "},"":{"ha":732,"x_min":69,"x_max":663,"o":"m 663 972 l 663 0 l 69 0 l 69 972 l 663 972 m 365 515 l 624 944 l 108 944 l 365 515 m 99 903 l 99 68 l 349 486 l 99 903 m 110 29 l 624 29 l 367 457 l 110 29 m 635 65 l 635 906 l 383 486 l 635 65 z "},"":{"ha":732,"x_min":69,"x_max":663,"o":"m 663 972 l 663 0 l 69 0 l 69 972 l 663 972 m 365 515 l 624 944 l 108 944 l 365 515 m 99 903 l 99 68 l 349 486 l 99 903 m 110 29 l 624 29 l 367 457 l 110 29 m 635 65 l 635 906 l 383 486 l 635 65 z "},"":{"ha":732,"x_min":69,"x_max":663,"o":"m 663 972 l 663 0 l 69 0 l 69 972 l 663 972 m 365 515 l 624 944 l 108 944 l 365 515 m 99 903 l 99 68 l 349 486 l 99 903 m 110 29 l 624 29 l 367 457 l 110 29 m 635 65 l 635 906 l 383 486 l 635 65 z "},"":{"ha":732,"x_min":69,"x_max":663,"o":"m 663 972 l 663 0 l 69 0 l 69 972 l 663 972 m 365 515 l 624 944 l 108 944 l 365 515 m 99 903 l 99 68 l 349 486 l 99 903 m 110 29 l 624 29 l 367 457 l 110 29 m 635 65 l 635 906 l 383 486 l 635 65 z "},"":{"ha":732,"x_min":69,"x_max":663,"o":"m 663 972 l 663 0 l 69 0 l 69 972 l 663 972 m 365 515 l 624 944 l 108 944 l 365 515 m 99 903 l 99 68 l 349 486 l 99 903 m 110 29 l 624 29 l 367 457 l 110 29 m 635 65 l 635 906 l 383 486 l 635 65 z "},"":{"ha":732,"x_min":69,"x_max":663,"o":"m 663 972 l 663 0 l 69 0 l 69 972 l 663 972 m 365 515 l 624 944 l 108 944 l 365 515 m 99 903 l 99 68 l 349 486 l 99 903 m 110 29 l 624 29 l 367 457 l 110 29 m 635 65 l 635 906 l 383 486 l 635 65 z "},"":{"ha":732,"x_min":69,"x_max":663,"o":"m 663 972 l 663 0 l 69 0 l 69 972 l 663 972 m 365 515 l 624 944 l 108 944 l 365 515 m 99 903 l 99 68 l 349 486 l 99 903 m 110 29 l 624 29 l 367 457 l 110 29 m 635 65 l 635 906 l 383 486 l 635 65 z "},"":{"ha":732,"x_min":69,"x_max":663,"o":"m 663 972 l 663 0 l 69 0 l 69 972 l 663 972 m 365 515 l 624 944 l 108 944 l 365 515 m 99 903 l 99 68 l 349 486 l 99 903 m 110 29 l 624 29 l 367 457 l 110 29 m 635 65 l 635 906 l 383 486 l 635 65 z "},"":{"ha":732,"x_min":69,"x_max":663,"o":"m 663 972 l 663 0 l 69 0 l 69 972 l 663 972 m 365 515 l 624 944 l 108 944 l 365 515 m 99 903 l 99 68 l 349 486 l 99 903 m 110 29 l 624 29 l 367 457 l 110 29 m 635 65 l 635 906 l 383 486 l 635 65 z "},"":{"ha":732,"x_min":69,"x_max":663,"o":"m 663 972 l 663 0 l 69 0 l 69 972 l 663 972 m 365 515 l 624 944 l 108 944 l 365 515 m 99 903 l 99 68 l 349 486 l 99 903 m 110 29 l 624 29 l 367 457 l 110 29 m 635 65 l 635 906 l 383 486 l 635 65 z "},"":{"ha":732,"x_min":69,"x_max":663,"o":"m 663 972 l 663 0 l 69 0 l 69 972 l 663 972 m 365 515 l 624 944 l 108 944 l 365 515 m 99 903 l 99 68 l 349 486 l 99 903 m 110 29 l 624 29 l 367 457 l 110 29 m 635 65 l 635 906 l 383 486 l 635 65 z "},"\u0003":{"ha":732,"x_min":69,"x_max":663,"o":"m 663 972 l 663 0 l 69 0 l 69 972 l 663 972 m 365 515 l 624 944 l 108 944 l 365 515 m 99 903 l 99 68 l 349 486 l 99 903 m 110 29 l 624 29 l 367 457 l 110 29 m 635 65 l 635 906 l 383 486 l 635 65 z "},"":{"ha":732,"x_min":69,"x_max":663,"o":"m 663 972 l 663 0 l 69 0 l 69 972 l 663 972 m 365 515 l 624 944 l 108 944 l 365 515 m 99 903 l 99 68 l 349 486 l 99 903 m 110 29 l 624 29 l 367 457 l 110 29 m 635 65 l 635 906 l 383 486 l 635 65 z "},"":{"ha":732,"x_min":69,"x_max":663,"o":"m 663 972 l 663 0 l 69 0 l 69 972 l 663 972 m 365 515 l 624 944 l 108 944 l 365 515 m 99 903 l 99 68 l 349 486 l 99 903 m 110 29 l 624 29 l 367 457 l 110 29 m 635 65 l 635 906 l 383 486 l 635 65 z "},"":{"ha":732,"x_min":69,"x_max":663,"o":"m 663 972 l 663 0 l 69 0 l 69 972 l 663 972 m 365 515 l 624 944 l 108 944 l 365 515 m 99 903 l 99 68 l 349 486 l 99 903 m 110 29 l 624 29 l 367 457 l 110 29 m 635 65 l 635 906 l 383 486 l 635 65 z "},"":{"ha":732,"x_min":69,"x_max":663,"o":"m 663 972 l 663 0 l 69 0 l 69 972 l 663 972 m 365 515 l 624 944 l 108 944 l 365 515 m 99 903 l 99 68 l 349 486 l 99 903 m 110 29 l 624 29 l 367 457 l 110 29 m 635 65 l 635 906 l 383 486 l 635 65 z "},"":{"ha":732,"x_min":69,"x_max":663,"o":"m 663 972 l 663 0 l 69 0 l 69 972 l 663 972 m 365 515 l 624 944 l 108 944 l 365 515 m 99 903 l 99 68 l 349 486 l 99 903 m 110 29 l 624 29 l 367 457 l 110 29 m 635 65 l 635 906 l 383 486 l 635 65 z "},"":{"ha":732,"x_min":69,"x_max":663,"o":"m 663 972 l 663 0 l 69 0 l 69 972 l 663 972 m 365 515 l 624 944 l 108 944 l 365 515 m 99 903 l 99 68 l 349 486 l 99 903 m 110 29 l 624 29 l 367 457 l 110 29 m 635 65 l 635 906 l 383 486 l 635 65 z "},"":{"ha":732,"x_min":69,"x_max":663,"o":"m 663 972 l 663 0 l 69 0 l 69 972 l 663 972 m 365 515 l 624 944 l 108 944 l 365 515 m 99 903 l 99 68 l 349 486 l 99 903 m 110 29 l 624 29 l 367 457 l 110 29 m 635 65 l 635 906 l 383 486 l 635 65 z "},"\u0004":{"ha":732,"x_min":69,"x_max":663,"o":"m 663 972 l 663 0 l 69 0 l 69 972 l 663 972 m 365 515 l 624 944 l 108 944 l 365 515 m 99 903 l 99 68 l 349 486 l 99 903 m 110 29 l 624 29 l 367 457 l 110 29 m 635 65 l 635 906 l 383 486 l 635 65 z "},"":{"ha":732,"x_min":69,"x_max":663,"o":"m 663 972 l 663 0 l 69 0 l 69 972 l 663 972 m 365 515 l 624 944 l 108 944 l 365 515 m 99 903 l 99 68 l 349 486 l 99 903 m 110 29 l 624 29 l 367 457 l 110 29 m 635 65 l 635 906 l 383 486 l 635 65 z "},"":{"ha":732,"x_min":69,"x_max":663,"o":"m 663 972 l 663 0 l 69 0 l 69 972 l 663 972 m 365 515 l 624 944 l 108 944 l 365 515 m 99 903 l 99 68 l 349 486 l 99 903 m 110 29 l 624 29 l 367 457 l 110 29 m 635 65 l 635 906 l 383 486 l 635 65 z "},"":{"ha":732,"x_min":69,"x_max":663,"o":"m 663 972 l 663 0 l 69 0 l 69 972 l 663 972 m 365 515 l 624 944 l 108 944 l 365 515 m 99 903 l 99 68 l 349 486 l 99 903 m 110 29 l 624 29 l 367 457 l 110 29 m 635 65 l 635 906 l 383 486 l 635 65 z "},"✆":{"ha":732,"x_min":69,"x_max":663,"o":"m 663 972 l 663 0 l 69 0 l 69 972 l 663 972 m 365 515 l 624 944 l 108 944 l 365 515 m 99 903 l 99 68 l 349 486 l 99 903 m 110 29 l 624 29 l 367 457 l 110 29 m 635 65 l 635 906 l 383 486 l 635 65 z "},"":{"ha":732,"x_min":69,"x_max":663,"o":"m 663 972 l 663 0 l 69 0 l 69 972 l 663 972 m 365 515 l 624 944 l 108 944 l 365 515 m 99 903 l 99 68 l 349 486 l 99 903 m 110 29 l 624 29 l 367 457 l 110 29 m 635 65 l 635 906 l 383 486 l 635 65 z "},"":{"ha":732,"x_min":69,"x_max":663,"o":"m 663 972 l 663 0 l 69 0 l 69 972 l 663 972 m 365 515 l 624 944 l 108 944 l 365 515 m 99 903 l 99 68 l 349 486 l 99 903 m 110 29 l 624 29 l 367 457 l 110 29 m 635 65 l 635 906 l 383 486 l 635 65 z "},"":{"ha":732,"x_min":69,"x_max":663,"o":"m 663 972 l 663 0 l 69 0 l 69 972 l 663 972 m 365 515 l 624 944 l 108 944 l 365 515 m 99 903 l 99 68 l 349 486 l 99 903 m 110 29 l 624 29 l 367 457 l 110 29 m 635 65 l 635 906 l 383 486 l 635 65 z "},"":{"ha":732,"x_min":69,"x_max":663,"o":"m 663 972 l 663 0 l 69 0 l 69 972 l 663 972 m 365 515 l 624 944 l 108 944 l 365 515 m 99 903 l 99 68 l 349 486 l 99 903 m 110 29 l 624 29 l 367 457 l 110 29 m 635 65 l 635 906 l 383 486 l 635 65 z "},"":{"ha":732,"x_min":69,"x_max":663,"o":"m 663 972 l 663 0 l 69 0 l 69 972 l 663 972 m 365 515 l 624 944 l 108 944 l 365 515 m 99 903 l 99 68 l 349 486 l 99 903 m 110 29 l 624 29 l 367 457 l 110 29 m 635 65 l 635 906 l 383 486 l 635 65 z "},"":{"ha":732,"x_min":69,"x_max":663,"o":"m 663 972 l 663 0 l 69 0 l 69 972 l 663 972 m 365 515 l 624 944 l 108 944 l 365 515 m 99 903 l 99 68 l 349 486 l 99 903 m 110 29 l 624 29 l 367 457 l 110 29 m 635 65 l 635 906 l 383 486 l 635 65 z "},"":{"ha":732,"x_min":69,"x_max":663,"o":"m 663 972 l 663 0 l 69 0 l 69 972 l 663 972 m 365 515 l 624 944 l 108 944 l 365 515 m 99 903 l 99 68 l 349 486 l 99 903 m 110 29 l 624 29 l 367 457 l 110 29 m 635 65 l 635 906 l 383 486 l 635 65 z "},"":{"ha":732,"x_min":69,"x_max":663,"o":"m 663 972 l 663 0 l 69 0 l 69 972 l 663 972 m 365 515 l 624 944 l 108 944 l 365 515 m 99 903 l 99 68 l 349 486 l 99 903 m 110 29 l 624 29 l 367 457 l 110 29 m 635 65 l 635 906 l 383 486 l 635 65 z "},"":{"ha":732,"x_min":69,"x_max":663,"o":"m 663 972 l 663 0 l 69 0 l 69 972 l 663 972 m 365 515 l 624 944 l 108 944 l 365 515 m 99 903 l 99 68 l 349 486 l 99 903 m 110 29 l 624 29 l 367 457 l 110 29 m 635 65 l 635 906 l 383 486 l 635 65 z "},"\u0005":{"ha":732,"x_min":69,"x_max":663,"o":"m 663 972 l 663 0 l 69 0 l 69 972 l 663 972 m 365 515 l 624 944 l 108 944 l 365 515 m 99 903 l 99 68 l 349 486 l 99 903 m 110 29 l 624 29 l 367 457 l 110 29 m 635 65 l 635 906 l 383 486 l 635 65 z "},"✝":{"ha":732,"x_min":69,"x_max":663,"o":"m 663 972 l 663 0 l 69 0 l 69 972 l 663 972 m 365 515 l 624 944 l 108 944 l 365 515 m 99 903 l 99 68 l 349 486 l 99 903 m 110 29 l 624 29 l 367 457 l 110 29 m 635 65 l 635 906 l 383 486 l 635 65 z "},"":{"ha":732,"x_min":69,"x_max":663,"o":"m 663 972 l 663 0 l 69 0 l 69 972 l 663 972 m 365 515 l 624 944 l 108 944 l 365 515 m 99 903 l 99 68 l 349 486 l 99 903 m 110 29 l 624 29 l 367 457 l 110 29 m 635 65 l 635 906 l 383 486 l 635 65 z "},"":{"ha":732,"x_min":69,"x_max":663,"o":"m 663 972 l 663 0 l 69 0 l 69 972 l 663 972 m 365 515 l 624 944 l 108 944 l 365 515 m 99 903 l 99 68 l 349 486 l 99 903 m 110 29 l 624 29 l 367 457 l 110 29 m 635 65 l 635 906 l 383 486 l 635 65 z "},"":{"ha":732,"x_min":69,"x_max":663,"o":"m 663 972 l 663 0 l 69 0 l 69 972 l 663 972 m 365 515 l 624 944 l 108 944 l 365 515 m 99 903 l 99 68 l 349 486 l 99 903 m 110 29 l 624 29 l 367 457 l 110 29 m 635 65 l 635 906 l 383 486 l 635 65 z "},"":{"ha":732,"x_min":69,"x_max":663,"o":"m 663 972 l 663 0 l 69 0 l 69 972 l 663 972 m 365 515 l 624 944 l 108 944 l 365 515 m 99 903 l 99 68 l 349 486 l 99 903 m 110 29 l 624 29 l 367 457 l 110 29 m 635 65 l 635 906 l 383 486 l 635 65 z "},"":{"ha":732,"x_min":69,"x_max":663,"o":"m 663 972 l 663 0 l 69 0 l 69 972 l 663 972 m 365 515 l 624 944 l 108 944 l 365 515 m 99 903 l 99 68 l 349 486 l 99 903 m 110 29 l 624 29 l 367 457 l 110 29 m 635 65 l 635 906 l 383 486 l 635 65 z "},"":{"ha":732,"x_min":69,"x_max":663,"o":"m 663 972 l 663 0 l 69 0 l 69 972 l 663 972 m 365 515 l 624 944 l 108 944 l 365 515 m 99 903 l 99 68 l 349 486 l 99 903 m 110 29 l 624 29 l 367 457 l 110 29 m 635 65 l 635 906 l 383 486 l 635 65 z "},"":{"ha":732,"x_min":69,"x_max":663,"o":"m 663 972 l 663 0 l 69 0 l 69 972 l 663 972 m 365 515 l 624 944 l 108 944 l 365 515 m 99 903 l 99 68 l 349 486 l 99 903 m 110 29 l 624 29 l 367 457 l 110 29 m 635 65 l 635 906 l 383 486 l 635 65 z "},"":{"ha":732,"x_min":69,"x_max":663,"o":"m 663 972 l 663 0 l 69 0 l 69 972 l 663 972 m 365 515 l 624 944 l 108 944 l 365 515 m 99 903 l 99 68 l 349 486 l 99 903 m 110 29 l 624 29 l 367 457 l 110 29 m 635 65 l 635 906 l 383 486 l 635 65 z "},"":{"ha":732,"x_min":69,"x_max":663,"o":"m 663 972 l 663 0 l 69 0 l 69 972 l 663 972 m 365 515 l 624 944 l 108 944 l 365 515 m 99 903 l 99 68 l 349 486 l 99 903 m 110 29 l 624 29 l 367 457 l 110 29 m 635 65 l 635 906 l 383 486 l 635 65 z "},"\u0006":{"ha":732,"x_min":69,"x_max":663,"o":"m 663 972 l 663 0 l 69 0 l 69 972 l 663 972 m 365 515 l 624 944 l 108 944 l 365 515 m 99 903 l 99 68 l 349 486 l 99 903 m 110 29 l 624 29 l 367 457 l 110 29 m 635 65 l 635 906 l 383 486 l 635 65 z "},"":{"ha":732,"x_min":69,"x_max":663,"o":"m 663 972 l 663 0 l 69 0 l 69 972 l 663 972 m 365 515 l 624 944 l 108 944 l 365 515 m 99 903 l 99 68 l 349 486 l 99 903 m 110 29 l 624 29 l 367 457 l 110 29 m 635 65 l 635 906 l 383 486 l 635 65 z "},"":{"ha":732,"x_min":69,"x_max":663,"o":"m 663 972 l 663 0 l 69 0 l 69 972 l 663 972 m 365 515 l 624 944 l 108 944 l 365 515 m 99 903 l 99 68 l 349 486 l 99 903 m 110 29 l 624 29 l 367 457 l 110 29 m 635 65 l 635 906 l 383 486 l 635 65 z "},"":{"ha":732,"x_min":69,"x_max":663,"o":"m 663 972 l 663 0 l 69 0 l 69 972 l 663 972 m 365 515 l 624 944 l 108 944 l 365 515 m 99 903 l 99 68 l 349 486 l 99 903 m 110 29 l 624 29 l 367 457 l 110 29 m 635 65 l 635 906 l 383 486 l 635 65 z "},"":{"ha":732,"x_min":69,"x_max":663,"o":"m 663 972 l 663 0 l 69 0 l 69 972 l 663 972 m 365 515 l 624 944 l 108 944 l 365 515 m 99 903 l 99 68 l 349 486 l 99 903 m 110 29 l 624 29 l 367 457 l 110 29 m 635 65 l 635 906 l 383 486 l 635 65 z "},"":{"ha":732,"x_min":69,"x_max":663,"o":"m 663 972 l 663 0 l 69 0 l 69 972 l 663 972 m 365 515 l 624 944 l 108 944 l 365 515 m 99 903 l 99 68 l 349 486 l 99 903 m 110 29 l 624 29 l 367 457 l 110 29 m 635 65 l 635 906 l 383 486 l 635 65 z "},"":{"ha":732,"x_min":69,"x_max":663,"o":"m 663 972 l 663 0 l 69 0 l 69 972 l 663 972 m 365 515 l 624 944 l 108 944 l 365 515 m 99 903 l 99 68 l 349 486 l 99 903 m 110 29 l 624 29 l 367 457 l 110 29 m 635 65 l 635 906 l 383 486 l 635 65 z "},"":{"ha":732,"x_min":69,"x_max":663,"o":"m 663 972 l 663 0 l 69 0 l 69 972 l 663 972 m 365 515 l 624 944 l 108 944 l 365 515 m 99 903 l 99 68 l 349 486 l 99 903 m 110 29 l 624 29 l 367 457 l 110 29 m 635 65 l 635 906 l 383 486 l 635 65 z "},"":{"ha":732,"x_min":69,"x_max":663,"o":"m 663 972 l 663 0 l 69 0 l 69 972 l 663 972 m 365 515 l 624 944 l 108 944 l 365 515 m 99 903 l 99 68 l 349 486 l 99 903 m 110 29 l 624 29 l 367 457 l 110 29 m 635 65 l 635 906 l 383 486 l 635 65 z "},"":{"ha":732,"x_min":69,"x_max":663,"o":"m 663 972 l 663 0 l 69 0 l 69 972 l 663 972 m 365 515 l 624 944 l 108 944 l 365 515 m 99 903 l 99 68 l 349 486 l 99 903 m 110 29 l 624 29 l 367 457 l 110 29 m 635 65 l 635 906 l 383 486 l 635 65 z "},"":{"ha":732,"x_min":69,"x_max":663,"o":"m 663 972 l 663 0 l 69 0 l 69 972 l 663 972 m 365 515 l 624 944 l 108 944 l 365 515 m 99 903 l 99 68 l 349 486 l 99 903 m 110 29 l 624 29 l 367 457 l 110 29 m 635 65 l 635 906 l 383 486 l 635 65 z "},"":{"ha":732,"x_min":69,"x_max":663,"o":"m 663 972 l 663 0 l 69 0 l 69 972 l 663 972 m 365 515 l 624 944 l 108 944 l 365 515 m 99 903 l 99 68 l 349 486 l 99 903 m 110 29 l 624 29 l 367 457 l 110 29 m 635 65 l 635 906 l 383 486 l 635 65 z "},"":{"ha":732,"x_min":69,"x_max":663,"o":"m 663 972 l 663 0 l 69 0 l 69 972 l 663 972 m 365 515 l 624 944 l 108 944 l 365 515 m 99 903 l 99 68 l 349 486 l 99 903 m 110 29 l 624 29 l 367 457 l 110 29 m 635 65 l 635 906 l 383 486 l 635 65 z "},"":{"ha":732,"x_min":69,"x_max":663,"o":"m 663 972 l 663 0 l 69 0 l 69 972 l 663 972 m 365 515 l 624 944 l 108 944 l 365 515 m 99 903 l 99 68 l 349 486 l 99 903 m 110 29 l 624 29 l 367 457 l 110 29 m 635 65 l 635 906 l 383 486 l 635 65 z "},"":{"ha":732,"x_min":69,"x_max":663,"o":"m 663 972 l 663 0 l 69 0 l 69 972 l 663 972 m 365 515 l 624 944 l 108 944 l 365 515 m 99 903 l 99 68 l 349 486 l 99 903 m 110 29 l 624 29 l 367 457 l 110 29 m 635 65 l 635 906 l 383 486 l 635 65 z "},"":{"ha":732,"x_min":69,"x_max":663,"o":"m 663 972 l 663 0 l 69 0 l 69 972 l 663 972 m 365 515 l 624 944 l 108 944 l 365 515 m 99 903 l 99 68 l 349 486 l 99 903 m 110 29 l 624 29 l 367 457 l 110 29 m 635 65 l 635 906 l 383 486 l 635 65 z "},"":{"ha":732,"x_min":69,"x_max":663,"o":"m 663 972 l 663 0 l 69 0 l 69 972 l 663 972 m 365 515 l 624 944 l 108 944 l 365 515 m 99 903 l 99 68 l 349 486 l 99 903 m 110 29 l 624 29 l 367 457 l 110 29 m 635 65 l 635 906 l 383 486 l 635 65 z "},"":{"ha":732,"x_min":69,"x_max":663,"o":"m 663 972 l 663 0 l 69 0 l 69 972 l 663 972 m 365 515 l 624 944 l 108 944 l 365 515 m 99 903 l 99 68 l 349 486 l 99 903 m 110 29 l 624 29 l 367 457 l 110 29 m 635 65 l 635 906 l 383 486 l 635 65 z "},"":{"ha":732,"x_min":69,"x_max":663,"o":"m 663 972 l 663 0 l 69 0 l 69 972 l 663 972 m 365 515 l 624 944 l 108 944 l 365 515 m 99 903 l 99 68 l 349 486 l 99 903 m 110 29 l 624 29 l 367 457 l 110 29 m 635 65 l 635 906 l 383 486 l 635 65 z "},"":{"ha":732,"x_min":69,"x_max":663,"o":"m 663 972 l 663 0 l 69 0 l 69 972 l 663 972 m 365 515 l 624 944 l 108 944 l 365 515 m 99 903 l 99 68 l 349 486 l 99 903 m 110 29 l 624 29 l 367 457 l 110 29 m 635 65 l 635 906 l 383 486 l 635 65 z "},"":{"ha":732,"x_min":69,"x_max":663,"o":"m 663 972 l 663 0 l 69 0 l 69 972 l 663 972 m 365 515 l 624 944 l 108 944 l 365 515 m 99 903 l 99 68 l 349 486 l 99 903 m 110 29 l 624 29 l 367 457 l 110 29 m 635 65 l 635 906 l 383 486 l 635 65 z "},"":{"ha":732,"x_min":69,"x_max":663,"o":"m 663 972 l 663 0 l 69 0 l 69 972 l 663 972 m 365 515 l 624 944 l 108 944 l 365 515 m 99 903 l 99 68 l 349 486 l 99 903 m 110 29 l 624 29 l 367 457 l 110 29 m 635 65 l 635 906 l 383 486 l 635 65 z "},"":{"ha":732,"x_min":69,"x_max":663,"o":"m 663 972 l 663 0 l 69 0 l 69 972 l 663 972 m 365 515 l 624 944 l 108 944 l 365 515 m 99 903 l 99 68 l 349 486 l 99 903 m 110 29 l 624 29 l 367 457 l 110 29 m 635 65 l 635 906 l 383 486 l 635 65 z "},"":{"ha":732,"x_min":69,"x_max":663,"o":"m 663 972 l 663 0 l 69 0 l 69 972 l 663 972 m 365 515 l 624 944 l 108 944 l 365 515 m 99 903 l 99 68 l 349 486 l 99 903 m 110 29 l 624 29 l 367 457 l 110 29 m 635 65 l 635 906 l 383 486 l 635 65 z "},",":{"ha":732,"x_min":69,"x_max":663,"o":"m 663 972 l 663 0 l 69 0 l 69 972 l 663 972 m 365 515 l 624 944 l 108 944 l 365 515 m 99 903 l 99 68 l 349 486 l 99 903 m 110 29 l 624 29 l 367 457 l 110 29 m 635 65 l 635 906 l 383 486 l 635 65 z "},".":{"ha":732,"x_min":69,"x_max":663,"o":"m 663 972 l 663 0 l 69 0 l 69 972 l 663 972 m 365 515 l 624 944 l 108 944 l 365 515 m 99 903 l 99 68 l 349 486 l 99 903 m 110 29 l 624 29 l 367 457 l 110 29 m 635 65 l 635 906 l 383 486 l 635 65 z "},"!":{"ha":732,"x_min":69,"x_max":663,"o":"m 663 972 l 663 0 l 69 0 l 69 972 l 663 972 m 365 515 l 624 944 l 108 944 l 365 515 m 99 903 l 99 68 l 349 486 l 99 903 m 110 29 l 624 29 l 367 457 l 110 29 m 635 65 l 635 906 l 383 486 l 635 65 z "},"":{"ha":732,"x_min":69,"x_max":663,"o":"m 663 972 l 663 0 l 69 0 l 69 972 l 663 972 m 365 515 l 624 944 l 108 944 l 365 515 m 99 903 l 99 68 l 349 486 l 99 903 m 110 29 l 624 29 l 367 457 l 110 29 m 635 65 l 635 906 l 383 486 l 635 65 z "},"":{"ha":732,"x_min":69,"x_max":663,"o":"m 663 972 l 663 0 l 69 0 l 69 972 l 663 972 m 365 515 l 624 944 l 108 944 l 365 515 m 99 903 l 99 68 l 349 486 l 99 903 m 110 29 l 624 29 l 367 457 l 110 29 m 635 65 l 635 906 l 383 486 l 635 65 z "},"":{"ha":732,"x_min":69,"x_max":663,"o":"m 663 972 l 663 0 l 69 0 l 69 972 l 663 972 m 365 515 l 624 944 l 108 944 l 365 515 m 99 903 l 99 68 l 349 486 l 99 903 m 110 29 l 624 29 l 367 457 l 110 29 m 635 65 l 635 906 l 383 486 l 635 65 z "},"":{"ha":732,"x_min":69,"x_max":663,"o":"m 663 972 l 663 0 l 69 0 l 69 972 l 663 972 m 365 515 l 624 944 l 108 944 l 365 515 m 99 903 l 99 68 l 349 486 l 99 903 m 110 29 l 624 29 l 367 457 l 110 29 m 635 65 l 635 906 l 383 486 l 635 65 z "},"":{"ha":732,"x_min":69,"x_max":663,"o":"m 663 972 l 663 0 l 69 0 l 69 972 l 663 972 m 365 515 l 624 944 l 108 944 l 365 515 m 99 903 l 99 68 l 349 486 l 99 903 m 110 29 l 624 29 l 367 457 l 110 29 m 635 65 l 635 906 l 383 486 l 635 65 z "},"":{"ha":732,"x_min":69,"x_max":663,"o":"m 663 972 l 663 0 l 69 0 l 69 972 l 663 972 m 365 515 l 624 944 l 108 944 l 365 515 m 99 903 l 99 68 l 349 486 l 99 903 m 110 29 l 624 29 l 367 457 l 110 29 m 635 65 l 635 906 l 383 486 l 635 65 z "},"":{"ha":732,"x_min":69,"x_max":663,"o":"m 663 972 l 663 0 l 69 0 l 69 972 l 663 972 m 365 515 l 624 944 l 108 944 l 365 515 m 99 903 l 99 68 l 349 486 l 99 903 m 110 29 l 624 29 l 367 457 l 110 29 m 635 65 l 635 906 l 383 486 l 635 65 z "},"":{"ha":732,"x_min":69,"x_max":663,"o":"m 663 972 l 663 0 l 69 0 l 69 972 l 663 972 m 365 515 l 624 944 l 108 944 l 365 515 m 99 903 l 99 68 l 349 486 l 99 903 m 110 29 l 624 29 l 367 457 l 110 29 m 635 65 l 635 906 l 383 486 l 635 65 z "},"":{"ha":732,"x_min":69,"x_max":663,"o":"m 663 972 l 663 0 l 69 0 l 69 972 l 663 972 m 365 515 l 624 944 l 108 944 l 365 515 m 99 903 l 99 68 l 349 486 l 99 903 m 110 29 l 624 29 l 367 457 l 110 29 m 635 65 l 635 906 l 383 486 l 635 65 z "},"":{"ha":732,"x_min":69,"x_max":663,"o":"m 663 972 l 663 0 l 69 0 l 69 972 l 663 972 m 365 515 l 624 944 l 108 944 l 365 515 m 99 903 l 99 68 l 349 486 l 99 903 m 110 29 l 624 29 l 367 457 l 110 29 m 635 65 l 635 906 l 383 486 l 635 65 z "},"ﬆ":{"ha":904,"x_min":-1,"x_max":890,"o":"m 49 183 q 101 165 85 183 q 133 126 118 147 q 170 86 149 104 q 235 68 192 68 q 314 83 288 68 q 340 114 340 99 q 315 149 340 135 q 252 178 290 164 q 169 212 214 193 q 87 260 125 231 q 24 331 49 289 q -1 435 -1 374 q 18 512 -1 478 q 72 569 38 546 q 152 606 106 593 q 253 618 199 618 l 272 618 q 274 745 257 685 q 332 851 292 806 q 431 924 372 897 q 553 951 489 951 q 721 884 661 951 q 781 700 781 817 l 781 610 l 874 610 l 874 546 l 781 546 l 781 128 q 794 78 781 92 q 824 65 807 65 q 843 69 835 65 q 857 78 851 74 q 869 90 864 83 l 890 65 q 860 35 878 47 q 822 13 844 22 q 767 3 799 3 q 692 13 728 3 q 630 42 657 22 q 586 94 603 63 q 568 167 569 125 l 568 546 l 475 546 l 475 610 l 501 610 q 556 618 531 610 q 603 639 581 626 q 610 644 606 642 q 617 649 614 646 q 619 650 618 650 q 668 722 654 679 q 674 804 682 764 q 634 873 665 844 q 549 901 603 901 q 447 869 494 901 q 376 787 400 836 q 361 678 353 738 q 428 564 369 618 q 458 521 449 543 q 465 480 467 499 q 453 449 464 461 q 424 438 442 438 q 378 447 394 438 q 350 472 361 457 q 300 524 325 508 q 228 540 275 540 q 160 522 178 540 q 143 490 143 504 q 170 447 143 465 q 238 410 197 428 q 327 374 279 393 q 416 330 375 356 q 484 267 457 304 q 511 179 511 231 q 497 107 511 140 q 452 49 483 74 q 369 9 421 24 q 243 -6 318 -6 q 130 8 176 -6 q 56 43 83 22 q 16 89 28 64 q 5 135 4 114 q 17 169 6 156 q 49 183 29 183 z "},"":{"ha":732,"x_min":69,"x_max":663,"o":"m 663 972 l 663 0 l 69 0 l 69 972 l 663 972 m 365 515 l 624 944 l 108 944 l 365 515 m 99 903 l 99 68 l 349 486 l 99 903 m 110 29 l 624 29 l 367 457 l 110 29 m 635 65 l 635 906 l 383 486 l 635 65 z "},"к":{"ha":732,"x_min":69,"x_max":663,"o":"m 663 972 l 663 0 l 69 0 l 69 972 l 663 972 m 365 515 l 624 944 l 108 944 l 365 515 m 99 903 l 99 68 l 349 486 l 99 903 m 110 29 l 624 29 l 367 457 l 110 29 m 635 65 l 635 906 l 383 486 l 635 65 z "},"":{"ha":732,"x_min":69,"x_max":663,"o":"m 663 972 l 663 0 l 69 0 l 69 972 l 663 972 m 365 515 l 624 944 l 108 944 l 365 515 m 99 903 l 99 68 l 349 486 l 99 903 m 110 29 l 624 29 l 367 457 l 110 29 m 635 65 l 635 906 l 383 486 l 635 65 z "},"":{"ha":732,"x_min":69,"x_max":663,"o":"m 663 972 l 663 0 l 69 0 l 69 972 l 663 972 m 365 515 l 624 944 l 108 944 l 365 515 m 99 903 l 99 68 l 349 486 l 99 903 m 110 29 l 624 29 l 367 457 l 110 29 m 635 65 l 635 906 l 383 486 l 635 65 z "},"ﬁ":{"ha":732,"x_min":69,"x_max":663,"o":"m 663 972 l 663 0 l 69 0 l 69 972 l 663 972 m 365 515 l 624 944 l 108 944 l 365 515 m 99 903 l 99 68 l 349 486 l 99 903 m 110 29 l 624 29 l 367 457 l 110 29 m 635 65 l 635 906 l 383 486 l 635 65 z "},"":{"ha":801,"x_min":-7,"x_max":789,"o":"m 168 596 q 211 600 193 600 q 260 579 249 600 q 272 508 272 558 l 272 469 q 298 601 278 526 q 358 743 318 675 q 458 858 397 811 q 608 904 519 904 q 713 872 675 904 q 751 772 751 839 q 742 726 751 747 q 716 688 732 704 q 678 663 700 672 q 631 653 656 653 q 563 674 593 653 q 518 731 532 696 q 510 746 515 739 q 483 761 500 761 q 419 713 453 761 q 354 591 385 664 q 301 433 324 518 q 272 275 279 349 l 272 132 q 281 81 274 100 q 299 50 289 61 q 325 32 311 38 l 325 4 l 7 4 l 7 32 q 33 50 22 38 q 52 81 44 61 q 60 132 60 100 l 60 490 q 38 544 60 526 q -7 563 17 563 l -7 586 q 81 588 38 586 q 168 596 124 589 m 769 638 l 783 611 q 760 590 769 604 q 744 560 751 579 q 736 508 736 540 l 736 132 q 745 81 736 100 q 764 50 754 61 q 781 35 774 39 q 789 32 789 32 l 789 4 l 472 4 l 472 32 q 499 50 488 38 q 517 81 510 61 q 525 132 525 100 l 525 490 q 503 544 525 526 q 458 563 482 563 l 458 586 q 617 593 536 586 q 769 638 699 600 z "},"":{"ha":732,"x_min":69,"x_max":663,"o":"m 663 972 l 663 0 l 69 0 l 69 972 l 663 972 m 365 515 l 624 944 l 108 944 l 365 515 m 99 903 l 99 68 l 349 486 l 99 903 m 110 29 l 624 29 l 367 457 l 110 29 m 635 65 l 635 906 l 383 486 l 635 65 z "},"&":{"ha":732,"x_min":69,"x_max":663,"o":"m 663 972 l 663 0 l 69 0 l 69 972 l 663 972 m 365 515 l 624 944 l 108 944 l 365 515 m 99 903 l 99 68 l 349 486 l 99 903 m 110 29 l 624 29 l 367 457 l 110 29 m 635 65 l 635 906 l 383 486 l 635 65 z "},"@":{"ha":732,"x_min":69,"x_max":663,"o":"m 663 972 l 663 0 l 69 0 l 69 972 l 663 972 m 365 515 l 624 944 l 108 944 l 365 515 m 99 903 l 99 68 l 349 486 l 99 903 m 110 29 l 624 29 l 367 457 l 110 29 m 635 65 l 635 906 l 383 486 l 635 65 z "},"?":{"ha":732,"x_min":69,"x_max":663,"o":"m 663 972 l 663 0 l 69 0 l 69 972 l 663 972 m 365 515 l 624 944 l 108 944 l 365 515 m 99 903 l 99 68 l 349 486 l 99 903 m 110 29 l 624 29 l 367 457 l 110 29 m 635 65 l 635 906 l 383 486 l 635 65 z "},"€":{"ha":732,"x_min":69,"x_max":663,"o":"m 663 972 l 663 0 l 69 0 l 69 972 l 663 972 m 365 515 l 624 944 l 108 944 l 365 515 m 99 903 l 99 68 l 349 486 l 99 903 m 110 29 l 624 29 l 367 457 l 110 29 m 635 65 l 635 906 l 383 486 l 635 65 z "},"£":{"ha":732,"x_min":69,"x_max":663,"o":"m 663 972 l 663 0 l 69 0 l 69 972 l 663 972 m 365 515 l 624 944 l 108 944 l 365 515 m 99 903 l 99 68 l 349 486 l 99 903 m 110 29 l 624 29 l 367 457 l 110 29 m 635 65 l 635 906 l 383 486 l 635 65 z "},"§":{"ha":732,"x_min":69,"x_max":663,"o":"m 663 972 l 663 0 l 69 0 l 69 972 l 663 972 m 365 515 l 624 944 l 108 944 l 365 515 m 99 903 l 99 68 l 349 486 l 99 903 m 110 29 l 624 29 l 367 457 l 110 29 m 635 65 l 635 906 l 383 486 l 635 65 z "},"%":{"ha":732,"x_min":69,"x_max":663,"o":"m 663 972 l 663 0 l 69 0 l 69 972 l 663 972 m 365 515 l 624 944 l 108 944 l 365 515 m 99 903 l 99 68 l 349 486 l 99 903 m 110 29 l 624 29 l 367 457 l 110 29 m 635 65 l 635 906 l 383 486 l 635 65 z "},"$":{"ha":732,"x_min":69,"x_max":663,"o":"m 663 972 l 663 0 l 69 0 l 69 972 l 663 972 m 365 515 l 624 944 l 108 944 l 365 515 m 99 903 l 99 68 l 349 486 l 99 903 m 110 29 l 624 29 l 367 457 l 110 29 m 635 65 l 635 906 l 383 486 l 635 65 z "},"ß":{"ha":732,"x_min":69,"x_max":663,"o":"m 663 972 l 663 0 l 69 0 l 69 972 l 663 972 m 365 515 l 624 944 l 108 944 l 365 515 m 99 903 l 99 68 l 349 486 l 99 903 m 110 29 l 624 29 l 367 457 l 110 29 m 635 65 l 635 906 l 383 486 l 635 65 z "},"¥":{"ha":732,"x_min":69,"x_max":663,"o":"m 663 972 l 663 0 l 69 0 l 69 972 l 663 972 m 365 515 l 624 944 l 108 944 l 365 515 m 99 903 l 99 68 l 349 486 l 99 903 m 110 29 l 624 29 l 367 457 l 110 29 m 635 65 l 635 906 l 383 486 l 635 65 z "},"¢":{"ha":732,"x_min":69,"x_max":663,"o":"m 663 972 l 663 0 l 69 0 l 69 972 l 663 972 m 365 515 l 624 944 l 108 944 l 365 515 m 99 903 l 99 68 l 349 486 l 99 903 m 110 29 l 624 29 l 367 457 l 110 29 m 635 65 l 635 906 l 383 486 l 635 65 z "},"}":{"ha":732,"x_min":69,"x_max":663,"o":"m 663 972 l 663 0 l 69 0 l 69 972 l 663 972 m 365 515 l 624 944 l 108 944 l 365 515 m 99 903 l 99 68 l 349 486 l 99 903 m 110 29 l 624 29 l 367 457 l 110 29 m 635 65 l 635 906 l 383 486 l 635 65 z "},"{":{"ha":732,"x_min":69,"x_max":663,"o":"m 663 972 l 663 0 l 69 0 l 69 972 l 663 972 m 365 515 l 624 944 l 108 944 l 365 515 m 99 903 l 99 68 l 349 486 l 99 903 m 110 29 l 624 29 l 367 457 l 110 29 m 635 65 l 635 906 l 383 486 l 635 65 z "},"|":{"ha":732,"x_min":69,"x_max":663,"o":"m 663 972 l 663 0 l 69 0 l 69 972 l 663 972 m 365 515 l 624 944 l 108 944 l 365 515 m 99 903 l 99 68 l 349 486 l 99 903 m 110 29 l 624 29 l 367 457 l 110 29 m 635 65 l 635 906 l 383 486 l 635 65 z "},")":{"ha":732,"x_min":69,"x_max":663,"o":"m 663 972 l 663 0 l 69 0 l 69 972 l 663 972 m 365 515 l 624 944 l 108 944 l 365 515 m 99 903 l 99 68 l 349 486 l 99 903 m 110 29 l 624 29 l 367 457 l 110 29 m 635 65 l 635 906 l 383 486 l 635 65 z "},"(":{"ha":732,"x_min":69,"x_max":663,"o":"m 663 972 l 663 0 l 69 0 l 69 972 l 663 972 m 365 515 l 624 944 l 108 944 l 365 515 m 99 903 l 99 68 l 349 486 l 99 903 m 110 29 l 624 29 l 367 457 l 110 29 m 635 65 l 635 906 l 383 486 l 635 65 z "},"¸":{"ha":732,"x_min":69,"x_max":663,"o":"m 663 972 l 663 0 l 69 0 l 69 972 l 663 972 m 365 515 l 624 944 l 108 944 l 365 515 m 99 903 l 99 68 l 349 486 l 99 903 m 110 29 l 624 29 l 367 457 l 110 29 m 635 65 l 635 906 l 383 486 l 635 65 z "},"/":{"ha":732,"x_min":69,"x_max":663,"o":"m 663 972 l 663 0 l 69 0 l 69 972 l 663 972 m 365 515 l 624 944 l 108 944 l 365 515 m 99 903 l 99 68 l 349 486 l 99 903 m 110 29 l 624 29 l 367 457 l 110 29 m 635 65 l 635 906 l 383 486 l 635 65 z "},"]":{"ha":732,"x_min":69,"x_max":663,"o":"m 663 972 l 663 0 l 69 0 l 69 972 l 663 972 m 365 515 l 624 944 l 108 944 l 365 515 m 99 903 l 99 68 l 349 486 l 99 903 m 110 29 l 624 29 l 367 457 l 110 29 m 635 65 l 635 906 l 383 486 l 635 65 z "},"[":{"ha":732,"x_min":69,"x_max":663,"o":"m 663 972 l 663 0 l 69 0 l 69 972 l 663 972 m 365 515 l 624 944 l 108 944 l 365 515 m 99 903 l 99 68 l 349 486 l 99 903 m 110 29 l 624 29 l 367 457 l 110 29 m 635 65 l 635 906 l 383 486 l 635 65 z "},"\\":{"ha":732,"x_min":69,"x_max":663,"o":"m 663 972 l 663 0 l 69 0 l 69 972 l 663 972 m 365 515 l 624 944 l 108 944 l 365 515 m 99 903 l 99 68 l 349 486 l 99 903 m 110 29 l 624 29 l 367 457 l 110 29 m 635 65 l 635 906 l 383 486 l 635 65 z "},"†":{"ha":732,"x_min":69,"x_max":663,"o":"m 663 972 l 663 0 l 69 0 l 69 972 l 663 972 m 365 515 l 624 944 l 108 944 l 365 515 m 99 903 l 99 68 l 349 486 l 99 903 m 110 29 l 624 29 l 367 457 l 110 29 m 635 65 l 635 906 l 383 486 l 635 65 z "},"ˇ":{"ha":732,"x_min":69,"x_max":663,"o":"m 663 972 l 663 0 l 69 0 l 69 972 l 663 972 m 365 515 l 624 944 l 108 944 l 365 515 m 99 903 l 99 68 l 349 486 l 99 903 m 110 29 l 624 29 l 367 457 l 110 29 m 635 65 l 635 906 l 383 486 l 635 65 z "},"ˆ":{"ha":732,"x_min":69,"x_max":663,"o":"m 663 972 l 663 0 l 69 0 l 69 972 l 663 972 m 365 515 l 624 944 l 108 944 l 365 515 m 99 903 l 99 68 l 349 486 l 99 903 m 110 29 l 624 29 l 367 457 l 110 29 m 635 65 l 635 906 l 383 486 l 635 65 z "},"¨":{"ha":732,"x_min":69,"x_max":663,"o":"m 663 972 l 663 0 l 69 0 l 69 972 l 663 972 m 365 515 l 624 944 l 108 944 l 365 515 m 99 903 l 99 68 l 349 486 l 99 903 m 110 29 l 624 29 l 367 457 l 110 29 m 635 65 l 635 906 l 383 486 l 635 65 z "},"®":{"ha":732,"x_min":69,"x_max":663,"o":"m 663 972 l 663 0 l 69 0 l 69 972 l 663 972 m 365 515 l 624 944 l 108 944 l 365 515 m 99 903 l 99 68 l 349 486 l 99 903 m 110 29 l 624 29 l 367 457 l 110 29 m 635 65 l 635 906 l 383 486 l 635 65 z "},"©":{"ha":732,"x_min":69,"x_max":663,"o":"m 663 972 l 663 0 l 69 0 l 69 972 l 663 972 m 365 515 l 624 944 l 108 944 l 365 515 m 99 903 l 99 68 l 349 486 l 99 903 m 110 29 l 624 29 l 367 457 l 110 29 m 635 65 l 635 906 l 383 486 l 635 65 z "},"´":{"ha":732,"x_min":69,"x_max":663,"o":"m 663 972 l 663 0 l 69 0 l 69 972 l 663 972 m 365 515 l 624 944 l 108 944 l 365 515 m 99 903 l 99 68 l 349 486 l 99 903 m 110 29 l 624 29 l 367 457 l 110 29 m 635 65 l 635 906 l 383 486 l 635 65 z "},"`":{"ha":732,"x_min":69,"x_max":663,"o":"m 663 972 l 663 0 l 69 0 l 69 972 l 663 972 m 365 515 l 624 944 l 108 944 l 365 515 m 99 903 l 99 68 l 349 486 l 99 903 m 110 29 l 624 29 l 367 457 l 110 29 m 635 65 l 635 906 l 383 486 l 635 65 z "},"˜":{"ha":732,"x_min":69,"x_max":663,"o":"m 663 972 l 663 0 l 69 0 l 69 972 l 663 972 m 365 515 l 624 944 l 108 944 l 365 515 m 99 903 l 99 68 l 349 486 l 99 903 m 110 29 l 624 29 l 367 457 l 110 29 m 635 65 l 635 906 l 383 486 l 635 65 z "},"°":{"ha":732,"x_min":69,"x_max":663,"o":"m 663 972 l 663 0 l 69 0 l 69 972 l 663 972 m 365 515 l 624 944 l 108 944 l 365 515 m 99 903 l 99 68 l 349 486 l 99 903 m 110 29 l 624 29 l 367 457 l 110 29 m 635 65 l 635 906 l 383 486 l 635 65 z "},"˚":{"ha":732,"x_min":69,"x_max":663,"o":"m 663 972 l 663 0 l 69 0 l 69 972 l 663 972 m 365 515 l 624 944 l 108 944 l 365 515 m 99 903 l 99 68 l 349 486 l 99 903 m 110 29 l 624 29 l 367 457 l 110 29 m 635 65 l 635 906 l 383 486 l 635 65 z "},"•":{"ha":732,"x_min":69,"x_max":663,"o":"m 663 972 l 663 0 l 69 0 l 69 972 l 663 972 m 365 515 l 624 944 l 108 944 l 365 515 m 99 903 l 99 68 l 349 486 l 99 903 m 110 29 l 624 29 l 367 457 l 110 29 m 635 65 l 635 906 l 383 486 l 635 65 z "},"~":{"ha":732,"x_min":69,"x_max":663,"o":"m 663 972 l 663 0 l 69 0 l 69 972 l 663 972 m 365 515 l 624 944 l 108 944 l 365 515 m 99 903 l 99 68 l 349 486 l 99 903 m 110 29 l 624 29 l 367 457 l 110 29 m 635 65 l 635 906 l 383 486 l 635 65 z "},"_":{"ha":732,"x_min":69,"x_max":663,"o":"m 663 972 l 663 0 l 69 0 l 69 972 l 663 972 m 365 515 l 624 944 l 108 944 l 365 515 m 99 903 l 99 68 l 349 486 l 99 903 m 110 29 l 624 29 l 367 457 l 110 29 m 635 65 l 635 906 l 383 486 l 635 65 z "},"^":{"ha":732,"x_min":69,"x_max":663,"o":"m 663 972 l 663 0 l 69 0 l 69 972 l 663 972 m 365 515 l 624 944 l 108 944 l 365 515 m 99 903 l 99 68 l 349 486 l 99 903 m 110 29 l 624 29 l 367 457 l 110 29 m 635 65 l 635 906 l 383 486 l 635 65 z "},"º":{"ha":732,"x_min":69,"x_max":663,"o":"m 663 972 l 663 0 l 69 0 l 69 972 l 663 972 m 365 515 l 624 944 l 108 944 l 365 515 m 99 903 l 99 68 l 349 486 l 99 903 m 110 29 l 624 29 l 367 457 l 110 29 m 635 65 l 635 906 l 383 486 l 635 65 z "},"¹":{"ha":732,"x_min":69,"x_max":663,"o":"m 663 972 l 663 0 l 69 0 l 69 972 l 663 972 m 365 515 l 624 944 l 108 944 l 365 515 m 99 903 l 99 68 l 349 486 l 99 903 m 110 29 l 624 29 l 367 457 l 110 29 m 635 65 l 635 906 l 383 486 l 635 65 z "},"²":{"ha":732,"x_min":69,"x_max":663,"o":"m 663 972 l 663 0 l 69 0 l 69 972 l 663 972 m 365 515 l 624 944 l 108 944 l 365 515 m 99 903 l 99 68 l 349 486 l 99 903 m 110 29 l 624 29 l 367 457 l 110 29 m 635 65 l 635 906 l 383 486 l 635 65 z "},"³":{"ha":732,"x_min":69,"x_max":663,"o":"m 663 972 l 663 0 l 69 0 l 69 972 l 663 972 m 365 515 l 624 944 l 108 944 l 365 515 m 99 903 l 99 68 l 349 486 l 99 903 m 110 29 l 624 29 l 367 457 l 110 29 m 635 65 l 635 906 l 383 486 l 635 65 z "},"ª":{"ha":732,"x_min":69,"x_max":663,"o":"m 663 972 l 663 0 l 69 0 l 69 972 l 663 972 m 365 515 l 624 944 l 108 944 l 365 515 m 99 903 l 99 68 l 349 486 l 99 903 m 110 29 l 624 29 l 367 457 l 110 29 m 635 65 l 635 906 l 383 486 l 635 65 z "},"=":{"ha":732,"x_min":69,"x_max":663,"o":"m 663 972 l 663 0 l 69 0 l 69 972 l 663 972 m 365 515 l 624 944 l 108 944 l 365 515 m 99 903 l 99 68 l 349 486 l 99 903 m 110 29 l 624 29 l 367 457 l 110 29 m 635 65 l 635 906 l 383 486 l 635 65 z "},"<":{"ha":732,"x_min":69,"x_max":663,"o":"m 663 972 l 663 0 l 69 0 l 69 972 l 663 972 m 365 515 l 624 944 l 108 944 l 365 515 m 99 903 l 99 68 l 349 486 l 99 903 m 110 29 l 624 29 l 367 457 l 110 29 m 635 65 l 635 906 l 383 486 l 635 65 z "},">":{"ha":732,"x_min":69,"x_max":663,"o":"m 663 972 l 663 0 l 69 0 l 69 972 l 663 972 m 365 515 l 624 944 l 108 944 l 365 515 m 99 903 l 99 68 l 349 486 l 99 903 m 110 29 l 624 29 l 367 457 l 110 29 m 635 65 l 635 906 l 383 486 l 635 65 z "},"#":{"ha":732,"x_min":69,"x_max":663,"o":"m 663 972 l 663 0 l 69 0 l 69 972 l 663 972 m 365 515 l 624 944 l 108 944 l 365 515 m 99 903 l 99 68 l 349 486 l 99 903 m 110 29 l 624 29 l 367 457 l 110 29 m 635 65 l 635 906 l 383 486 l 635 65 z "},"×":{"ha":732,"x_min":69,"x_max":663,"o":"m 663 972 l 663 0 l 69 0 l 69 972 l 663 972 m 365 515 l 624 944 l 108 944 l 365 515 m 99 903 l 99 68 l 349 486 l 99 903 m 110 29 l 624 29 l 367 457 l 110 29 m 635 65 l 635 906 l 383 486 l 635 65 z "},"«":{"ha":732,"x_min":69,"x_max":663,"o":"m 663 972 l 663 0 l 69 0 l 69 972 l 663 972 m 365 515 l 624 944 l 108 944 l 365 515 m 99 903 l 99 68 l 349 486 l 99 903 m 110 29 l 624 29 l 367 457 l 110 29 m 635 65 l 635 906 l 383 486 l 635 65 z "},"»":{"ha":732,"x_min":69,"x_max":663,"o":"m 663 972 l 663 0 l 69 0 l 69 972 l 663 972 m 365 515 l 624 944 l 108 944 l 365 515 m 99 903 l 99 68 l 349 486 l 99 903 m 110 29 l 624 29 l 367 457 l 110 29 m 635 65 l 635 906 l 383 486 l 635 65 z "},"‹":{"ha":732,"x_min":69,"x_max":663,"o":"m 663 972 l 663 0 l 69 0 l 69 972 l 663 972 m 365 515 l 624 944 l 108 944 l 365 515 m 99 903 l 99 68 l 349 486 l 99 903 m 110 29 l 624 29 l 367 457 l 110 29 m 635 65 l 635 906 l 383 486 l 635 65 z "},"›":{"ha":732,"x_min":69,"x_max":663,"o":"m 663 972 l 663 0 l 69 0 l 69 972 l 663 972 m 365 515 l 624 944 l 108 944 l 365 515 m 99 903 l 99 68 l 349 486 l 99 903 m 110 29 l 624 29 l 367 457 l 110 29 m 635 65 l 635 906 l 383 486 l 635 65 z "},"-":{"ha":732,"x_min":69,"x_max":663,"o":"m 663 972 l 663 0 l 69 0 l 69 972 l 663 972 m 365 515 l 624 944 l 108 944 l 365 515 m 99 903 l 99 68 l 349 486 l 99 903 m 110 29 l 624 29 l 367 457 l 110 29 m 635 65 l 635 906 l 383 486 l 635 65 z "},"−":{"ha":732,"x_min":69,"x_max":663,"o":"m 663 972 l 663 0 l 69 0 l 69 972 l 663 972 m 365 515 l 624 944 l 108 944 l 365 515 m 99 903 l 99 68 l 349 486 l 99 903 m 110 29 l 624 29 l 367 457 l 110 29 m 635 65 l 635 906 l 383 486 l 635 65 z "},"–":{"ha":732,"x_min":69,"x_max":663,"o":"m 663 972 l 663 0 l 69 0 l 69 972 l 663 972 m 365 515 l 624 944 l 108 944 l 365 515 m 99 903 l 99 68 l 349 486 l 99 903 m 110 29 l 624 29 l 367 457 l 110 29 m 635 65 l 635 906 l 383 486 l 635 65 z "},"—":{"ha":732,"x_min":69,"x_max":663,"o":"m 663 972 l 663 0 l 69 0 l 69 972 l 663 972 m 365 515 l 624 944 l 108 944 l 365 515 m 99 903 l 99 68 l 349 486 l 99 903 m 110 29 l 624 29 l 367 457 l 110 29 m 635 65 l 635 906 l 383 486 l 635 65 z "},"+":{"ha":732,"x_min":69,"x_max":663,"o":"m 663 972 l 663 0 l 69 0 l 69 972 l 663 972 m 365 515 l 624 944 l 108 944 l 365 515 m 99 903 l 99 68 l 349 486 l 99 903 m 110 29 l 624 29 l 367 457 l 110 29 m 635 65 l 635 906 l 383 486 l 635 65 z "},"*":{"ha":732,"x_min":69,"x_max":663,"o":"m 663 972 l 663 0 l 69 0 l 69 972 l 663 972 m 365 515 l 624 944 l 108 944 l 365 515 m 99 903 l 99 68 l 349 486 l 99 903 m 110 29 l 624 29 l 367 457 l 110 29 m 635 65 l 635 906 l 383 486 l 635 65 z "},":":{"ha":732,"x_min":69,"x_max":663,"o":"m 663 972 l 663 0 l 69 0 l 69 972 l 663 972 m 365 515 l 624 944 l 108 944 l 365 515 m 99 903 l 99 68 l 349 486 l 99 903 m 110 29 l 624 29 l 367 457 l 110 29 m 635 65 l 635 906 l 383 486 l 635 65 z "},";":{"ha":732,"x_min":69,"x_max":663,"o":"m 663 972 l 663 0 l 69 0 l 69 972 l 663 972 m 365 515 l 624 944 l 108 944 l 365 515 m 99 903 l 99 68 l 349 486 l 99 903 m 110 29 l 624 29 l 367 457 l 110 29 m 635 65 l 635 906 l 383 486 l 635 65 z "},"“":{"ha":732,"x_min":69,"x_max":663,"o":"m 663 972 l 663 0 l 69 0 l 69 972 l 663 972 m 365 515 l 624 944 l 108 944 l 365 515 m 99 903 l 99 68 l 349 486 l 99 903 m 110 29 l 624 29 l 367 457 l 110 29 m 635 65 l 635 906 l 383 486 l 635 65 z "},"”":{"ha":732,"x_min":69,"x_max":663,"o":"m 663 972 l 663 0 l 69 0 l 69 972 l 663 972 m 365 515 l 624 944 l 108 944 l 365 515 m 99 903 l 99 68 l 349 486 l 99 903 m 110 29 l 624 29 l 367 457 l 110 29 m 635 65 l 635 906 l 383 486 l 635 65 z "},"¡":{"ha":732,"x_min":69,"x_max":663,"o":"m 663 972 l 663 0 l 69 0 l 69 972 l 663 972 m 365 515 l 624 944 l 108 944 l 365 515 m 99 903 l 99 68 l 349 486 l 99 903 m 110 29 l 624 29 l 367 457 l 110 29 m 635 65 l 635 906 l 383 486 l 635 65 z "},"¿":{"ha":732,"x_min":69,"x_max":663,"o":"m 663 972 l 663 0 l 69 0 l 69 972 l 663 972 m 365 515 l 624 944 l 108 944 l 365 515 m 99 903 l 99 68 l 349 486 l 99 903 m 110 29 l 624 29 l 367 457 l 110 29 m 635 65 l 635 906 l 383 486 l 635 65 z "},"ı":{"ha":732,"x_min":69,"x_max":663,"o":"m 663 972 l 663 0 l 69 0 l 69 972 l 663 972 m 365 515 l 624 944 l 108 944 l 365 515 m 99 903 l 99 68 l 349 486 l 99 903 m 110 29 l 624 29 l 367 457 l 110 29 m 635 65 l 635 906 l 383 486 l 635 65 z "},"'":{"ha":732,"x_min":69,"x_max":663,"o":"m 663 972 l 663 0 l 69 0 l 69 972 l 663 972 m 365 515 l 624 944 l 108 944 l 365 515 m 99 903 l 99 68 l 349 486 l 99 903 m 110 29 l 624 29 l 367 457 l 110 29 m 635 65 l 635 906 l 383 486 l 635 65 z "},"\"":{"ha":732,"x_min":69,"x_max":663,"o":"m 663 972 l 663 0 l 69 0 l 69 972 l 663 972 m 365 515 l 624 944 l 108 944 l 365 515 m 99 903 l 99 68 l 349 486 l 99 903 m 110 29 l 624 29 l 367 457 l 110 29 m 635 65 l 635 906 l 383 486 l 635 65 z "},"‘":{"ha":732,"x_min":69,"x_max":663,"o":"m 663 972 l 663 0 l 69 0 l 69 972 l 663 972 m 365 515 l 624 944 l 108 944 l 365 515 m 99 903 l 99 68 l 349 486 l 99 903 m 110 29 l 624 29 l 367 457 l 110 29 m 635 65 l 635 906 l 383 486 l 635 65 z "},"’":{"ha":732,"x_min":69,"x_max":663,"o":"m 663 972 l 663 0 l 69 0 l 69 972 l 663 972 m 365 515 l 624 944 l 108 944 l 365 515 m 99 903 l 99 68 l 349 486 l 99 903 m 110 29 l 624 29 l 367 457 l 110 29 m 635 65 l 635 906 l 383 486 l 635 65 z "},"…":{"ha":732,"x_min":69,"x_max":663,"o":"m 663 972 l 663 0 l 69 0 l 69 972 l 663 972 m 365 515 l 624 944 l 108 944 l 365 515 m 99 903 l 99 68 l 349 486 l 99 903 m 110 29 l 624 29 l 367 457 l 110 29 m 635 65 l 635 906 l 383 486 l 635 65 z "},"⁄":{"ha":732,"x_min":69,"x_max":663,"o":"m 663 972 l 663 0 l 69 0 l 69 972 l 663 972 m 365 515 l 624 944 l 108 944 l 365 515 m 99 903 l 99 68 l 349 486 l 99 903 m 110 29 l 624 29 l 367 457 l 110 29 m 635 65 l 635 906 l 383 486 l 635 65 z "},"·":{"ha":732,"x_min":69,"x_max":663,"o":"m 663 972 l 663 0 l 69 0 l 69 972 l 663 972 m 365 515 l 624 944 l 108 944 l 365 515 m 99 903 l 99 68 l 349 486 l 99 903 m 110 29 l 624 29 l 367 457 l 110 29 m 635 65 l 635 906 l 383 486 l 635 65 z "},"Œ":{"ha":732,"x_min":69,"x_max":663,"o":"m 663 972 l 663 0 l 69 0 l 69 972 l 663 972 m 365 515 l 624 944 l 108 944 l 365 515 m 99 903 l 99 68 l 349 486 l 99 903 m 110 29 l 624 29 l 367 457 l 110 29 m 635 65 l 635 906 l 383 486 l 635 65 z "},"œ":{"ha":732,"x_min":69,"x_max":663,"o":"m 663 972 l 663 0 l 69 0 l 69 972 l 663 972 m 365 515 l 624 944 l 108 944 l 365 515 m 99 903 l 99 68 l 349 486 l 99 903 m 110 29 l 624 29 l 367 457 l 110 29 m 635 65 l 635 906 l 383 486 l 635 65 z "},"Æ":{"ha":732,"x_min":69,"x_max":663,"o":"m 663 972 l 663 0 l 69 0 l 69 972 l 663 972 m 365 515 l 624 944 l 108 944 l 365 515 m 99 903 l 99 68 l 349 486 l 99 903 m 110 29 l 624 29 l 367 457 l 110 29 m 635 65 l 635 906 l 383 486 l 635 65 z "},"æ":{"ha":732,"x_min":69,"x_max":663,"o":"m 663 972 l 663 0 l 69 0 l 69 972 l 663 972 m 365 515 l 624 944 l 108 944 l 365 515 m 99 903 l 99 68 l 349 486 l 99 903 m 110 29 l 624 29 l 367 457 l 110 29 m 635 65 l 635 906 l 383 486 l 635 65 z "},"‚":{"ha":732,"x_min":69,"x_max":663,"o":"m 663 972 l 663 0 l 69 0 l 69 972 l 663 972 m 365 515 l 624 944 l 108 944 l 365 515 m 99 903 l 99 68 l 349 486 l 99 903 m 110 29 l 624 29 l 367 457 l 110 29 m 635 65 l 635 906 l 383 486 l 635 65 z "},"„":{"ha":732,"x_min":69,"x_max":663,"o":"m 663 972 l 663 0 l 69 0 l 69 972 l 663 972 m 365 515 l 624 944 l 108 944 l 365 515 m 99 903 l 99 68 l 349 486 l 99 903 m 110 29 l 624 29 l 367 457 l 110 29 m 635 65 l 635 906 l 383 486 l 635 65 z "},"Ž":{"ha":732,"x_min":69,"x_max":663,"o":"m 663 972 l 663 0 l 69 0 l 69 972 l 663 972 m 365 515 l 624 944 l 108 944 l 365 515 m 99 903 l 99 68 l 349 486 l 99 903 m 110 29 l 624 29 l 367 457 l 110 29 m 635 65 l 635 906 l 383 486 l 635 65 z "},"ž":{"ha":732,"x_min":69,"x_max":663,"o":"m 663 972 l 663 0 l 69 0 l 69 972 l 663 972 m 365 515 l 624 944 l 108 944 l 365 515 m 99 903 l 99 68 l 349 486 l 99 903 m 110 29 l 624 29 l 367 457 l 110 29 m 635 65 l 635 906 l 383 486 l 635 65 z "},"Š":{"ha":732,"x_min":69,"x_max":663,"o":"m 663 972 l 663 0 l 69 0 l 69 972 l 663 972 m 365 515 l 624 944 l 108 944 l 365 515 m 99 903 l 99 68 l 349 486 l 99 903 m 110 29 l 624 29 l 367 457 l 110 29 m 635 65 l 635 906 l 383 486 l 635 65 z "},"š":{"ha":732,"x_min":69,"x_max":663,"o":"m 663 972 l 663 0 l 69 0 l 69 972 l 663 972 m 365 515 l 624 944 l 108 944 l 365 515 m 99 903 l 99 68 l 349 486 l 99 903 m 110 29 l 624 29 l 367 457 l 110 29 m 635 65 l 635 906 l 383 486 l 635 65 z "},"Ÿ":{"ha":732,"x_min":69,"x_max":663,"o":"m 663 972 l 663 0 l 69 0 l 69 972 l 663 972 m 365 515 l 624 944 l 108 944 l 365 515 m 99 903 l 99 68 l 349 486 l 99 903 m 110 29 l 624 29 l 367 457 l 110 29 m 635 65 l 635 906 l 383 486 l 635 65 z "},"À":{"ha":732,"x_min":69,"x_max":663,"o":"m 663 972 l 663 0 l 69 0 l 69 972 l 663 972 m 365 515 l 624 944 l 108 944 l 365 515 m 99 903 l 99 68 l 349 486 l 99 903 m 110 29 l 624 29 l 367 457 l 110 29 m 635 65 l 635 906 l 383 486 l 635 65 z "},"Á":{"ha":732,"x_min":69,"x_max":663,"o":"m 663 972 l 663 0 l 69 0 l 69 972 l 663 972 m 365 515 l 624 944 l 108 944 l 365 515 m 99 903 l 99 68 l 349 486 l 99 903 m 110 29 l 624 29 l 367 457 l 110 29 m 635 65 l 635 906 l 383 486 l 635 65 z "},"Â":{"ha":732,"x_min":69,"x_max":663,"o":"m 663 972 l 663 0 l 69 0 l 69 972 l 663 972 m 365 515 l 624 944 l 108 944 l 365 515 m 99 903 l 99 68 l 349 486 l 99 903 m 110 29 l 624 29 l 367 457 l 110 29 m 635 65 l 635 906 l 383 486 l 635 65 z "},"Ã":{"ha":732,"x_min":69,"x_max":663,"o":"m 663 972 l 663 0 l 69 0 l 69 972 l 663 972 m 365 515 l 624 944 l 108 944 l 365 515 m 99 903 l 99 68 l 349 486 l 99 903 m 110 29 l 624 29 l 367 457 l 110 29 m 635 65 l 635 906 l 383 486 l 635 65 z "},"Ä":{"ha":732,"x_min":69,"x_max":663,"o":"m 663 972 l 663 0 l 69 0 l 69 972 l 663 972 m 365 515 l 624 944 l 108 944 l 365 515 m 99 903 l 99 68 l 349 486 l 99 903 m 110 29 l 624 29 l 367 457 l 110 29 m 635 65 l 635 906 l 383 486 l 635 65 z "},"Å":{"ha":732,"x_min":69,"x_max":663,"o":"m 663 972 l 663 0 l 69 0 l 69 972 l 663 972 m 365 515 l 624 944 l 108 944 l 365 515 m 99 903 l 99 68 l 349 486 l 99 903 m 110 29 l 624 29 l 367 457 l 110 29 m 635 65 l 635 906 l 383 486 l 635 65 z "},"Ç":{"ha":732,"x_min":69,"x_max":663,"o":"m 663 972 l 663 0 l 69 0 l 69 972 l 663 972 m 365 515 l 624 944 l 108 944 l 365 515 m 99 903 l 99 68 l 349 486 l 99 903 m 110 29 l 624 29 l 367 457 l 110 29 m 635 65 l 635 906 l 383 486 l 635 65 z "},"È":{"ha":732,"x_min":69,"x_max":663,"o":"m 663 972 l 663 0 l 69 0 l 69 972 l 663 972 m 365 515 l 624 944 l 108 944 l 365 515 m 99 903 l 99 68 l 349 486 l 99 903 m 110 29 l 624 29 l 367 457 l 110 29 m 635 65 l 635 906 l 383 486 l 635 65 z "},"É":{"ha":732,"x_min":69,"x_max":663,"o":"m 663 972 l 663 0 l 69 0 l 69 972 l 663 972 m 365 515 l 624 944 l 108 944 l 365 515 m 99 903 l 99 68 l 349 486 l 99 903 m 110 29 l 624 29 l 367 457 l 110 29 m 635 65 l 635 906 l 383 486 l 635 65 z "},"Ê":{"ha":732,"x_min":69,"x_max":663,"o":"m 663 972 l 663 0 l 69 0 l 69 972 l 663 972 m 365 515 l 624 944 l 108 944 l 365 515 m 99 903 l 99 68 l 349 486 l 99 903 m 110 29 l 624 29 l 367 457 l 110 29 m 635 65 l 635 906 l 383 486 l 635 65 z "},"Ë":{"ha":732,"x_min":69,"x_max":663,"o":"m 663 972 l 663 0 l 69 0 l 69 972 l 663 972 m 365 515 l 624 944 l 108 944 l 365 515 m 99 903 l 99 68 l 349 486 l 99 903 m 110 29 l 624 29 l 367 457 l 110 29 m 635 65 l 635 906 l 383 486 l 635 65 z "},"Ì":{"ha":732,"x_min":69,"x_max":663,"o":"m 663 972 l 663 0 l 69 0 l 69 972 l 663 972 m 365 515 l 624 944 l 108 944 l 365 515 m 99 903 l 99 68 l 349 486 l 99 903 m 110 29 l 624 29 l 367 457 l 110 29 m 635 65 l 635 906 l 383 486 l 635 65 z "},"Í":{"ha":732,"x_min":69,"x_max":663,"o":"m 663 972 l 663 0 l 69 0 l 69 972 l 663 972 m 365 515 l 624 944 l 108 944 l 365 515 m 99 903 l 99 68 l 349 486 l 99 903 m 110 29 l 624 29 l 367 457 l 110 29 m 635 65 l 635 906 l 383 486 l 635 65 z "},"Î":{"ha":732,"x_min":69,"x_max":663,"o":"m 663 972 l 663 0 l 69 0 l 69 972 l 663 972 m 365 515 l 624 944 l 108 944 l 365 515 m 99 903 l 99 68 l 349 486 l 99 903 m 110 29 l 624 29 l 367 457 l 110 29 m 635 65 l 635 906 l 383 486 l 635 65 z "},"Ï":{"ha":732,"x_min":69,"x_max":663,"o":"m 663 972 l 663 0 l 69 0 l 69 972 l 663 972 m 365 515 l 624 944 l 108 944 l 365 515 m 99 903 l 99 68 l 349 486 l 99 903 m 110 29 l 624 29 l 367 457 l 110 29 m 635 65 l 635 906 l 383 486 l 635 65 z "},"Ñ":{"ha":732,"x_min":69,"x_max":663,"o":"m 663 972 l 663 0 l 69 0 l 69 972 l 663 972 m 365 515 l 624 944 l 108 944 l 365 515 m 99 903 l 99 68 l 349 486 l 99 903 m 110 29 l 624 29 l 367 457 l 110 29 m 635 65 l 635 906 l 383 486 l 635 65 z "},"Ò":{"ha":732,"x_min":69,"x_max":663,"o":"m 663 972 l 663 0 l 69 0 l 69 972 l 663 972 m 365 515 l 624 944 l 108 944 l 365 515 m 99 903 l 99 68 l 349 486 l 99 903 m 110 29 l 624 29 l 367 457 l 110 29 m 635 65 l 635 906 l 383 486 l 635 65 z "},"Ó":{"ha":732,"x_min":69,"x_max":663,"o":"m 663 972 l 663 0 l 69 0 l 69 972 l 663 972 m 365 515 l 624 944 l 108 944 l 365 515 m 99 903 l 99 68 l 349 486 l 99 903 m 110 29 l 624 29 l 367 457 l 110 29 m 635 65 l 635 906 l 383 486 l 635 65 z "},"Ô":{"ha":732,"x_min":69,"x_max":663,"o":"m 663 972 l 663 0 l 69 0 l 69 972 l 663 972 m 365 515 l 624 944 l 108 944 l 365 515 m 99 903 l 99 68 l 349 486 l 99 903 m 110 29 l 624 29 l 367 457 l 110 29 m 635 65 l 635 906 l 383 486 l 635 65 z "},"Õ":{"ha":732,"x_min":69,"x_max":663,"o":"m 663 972 l 663 0 l 69 0 l 69 972 l 663 972 m 365 515 l 624 944 l 108 944 l 365 515 m 99 903 l 99 68 l 349 486 l 99 903 m 110 29 l 624 29 l 367 457 l 110 29 m 635 65 l 635 906 l 383 486 l 635 65 z "},"Ö":{"ha":732,"x_min":69,"x_max":663,"o":"m 663 972 l 663 0 l 69 0 l 69 972 l 663 972 m 365 515 l 624 944 l 108 944 l 365 515 m 99 903 l 99 68 l 349 486 l 99 903 m 110 29 l 624 29 l 367 457 l 110 29 m 635 65 l 635 906 l 383 486 l 635 65 z "},"Ø":{"ha":732,"x_min":69,"x_max":663,"o":"m 663 972 l 663 0 l 69 0 l 69 972 l 663 972 m 365 515 l 624 944 l 108 944 l 365 515 m 99 903 l 99 68 l 349 486 l 99 903 m 110 29 l 624 29 l 367 457 l 110 29 m 635 65 l 635 906 l 383 486 l 635 65 z "},"Ù":{"ha":732,"x_min":69,"x_max":663,"o":"m 663 972 l 663 0 l 69 0 l 69 972 l 663 972 m 365 515 l 624 944 l 108 944 l 365 515 m 99 903 l 99 68 l 349 486 l 99 903 m 110 29 l 624 29 l 367 457 l 110 29 m 635 65 l 635 906 l 383 486 l 635 65 z "},"Ú":{"ha":732,"x_min":69,"x_max":663,"o":"m 663 972 l 663 0 l 69 0 l 69 972 l 663 972 m 365 515 l 624 944 l 108 944 l 365 515 m 99 903 l 99 68 l 349 486 l 99 903 m 110 29 l 624 29 l 367 457 l 110 29 m 635 65 l 635 906 l 383 486 l 635 65 z "},"Û":{"ha":732,"x_min":69,"x_max":663,"o":"m 663 972 l 663 0 l 69 0 l 69 972 l 663 972 m 365 515 l 624 944 l 108 944 l 365 515 m 99 903 l 99 68 l 349 486 l 99 903 m 110 29 l 624 29 l 367 457 l 110 29 m 635 65 l 635 906 l 383 486 l 635 65 z "},"Ü":{"ha":732,"x_min":69,"x_max":663,"o":"m 663 972 l 663 0 l 69 0 l 69 972 l 663 972 m 365 515 l 624 944 l 108 944 l 365 515 m 99 903 l 99 68 l 349 486 l 99 903 m 110 29 l 624 29 l 367 457 l 110 29 m 635 65 l 635 906 l 383 486 l 635 65 z "},"Ý":{"ha":732,"x_min":69,"x_max":663,"o":"m 663 972 l 663 0 l 69 0 l 69 972 l 663 972 m 365 515 l 624 944 l 108 944 l 365 515 m 99 903 l 99 68 l 349 486 l 99 903 m 110 29 l 624 29 l 367 457 l 110 29 m 635 65 l 635 906 l 383 486 l 635 65 z "},"à":{"ha":732,"x_min":69,"x_max":663,"o":"m 663 972 l 663 0 l 69 0 l 69 972 l 663 972 m 365 515 l 624 944 l 108 944 l 365 515 m 99 903 l 99 68 l 349 486 l 99 903 m 110 29 l 624 29 l 367 457 l 110 29 m 635 65 l 635 906 l 383 486 l 635 65 z "},"á":{"ha":732,"x_min":69,"x_max":663,"o":"m 663 972 l 663 0 l 69 0 l 69 972 l 663 972 m 365 515 l 624 944 l 108 944 l 365 515 m 99 903 l 99 68 l 349 486 l 99 903 m 110 29 l 624 29 l 367 457 l 110 29 m 635 65 l 635 906 l 383 486 l 635 65 z "},"â":{"ha":732,"x_min":69,"x_max":663,"o":"m 663 972 l 663 0 l 69 0 l 69 972 l 663 972 m 365 515 l 624 944 l 108 944 l 365 515 m 99 903 l 99 68 l 349 486 l 99 903 m 110 29 l 624 29 l 367 457 l 110 29 m 635 65 l 635 906 l 383 486 l 635 65 z "},"ã":{"ha":732,"x_min":69,"x_max":663,"o":"m 663 972 l 663 0 l 69 0 l 69 972 l 663 972 m 365 515 l 624 944 l 108 944 l 365 515 m 99 903 l 99 68 l 349 486 l 99 903 m 110 29 l 624 29 l 367 457 l 110 29 m 635 65 l 635 906 l 383 486 l 635 65 z "},"ä":{"ha":732,"x_min":69,"x_max":663,"o":"m 663 972 l 663 0 l 69 0 l 69 972 l 663 972 m 365 515 l 624 944 l 108 944 l 365 515 m 99 903 l 99 68 l 349 486 l 99 903 m 110 29 l 624 29 l 367 457 l 110 29 m 635 65 l 635 906 l 383 486 l 635 65 z "},"å":{"ha":732,"x_min":69,"x_max":663,"o":"m 663 972 l 663 0 l 69 0 l 69 972 l 663 972 m 365 515 l 624 944 l 108 944 l 365 515 m 99 903 l 99 68 l 349 486 l 99 903 m 110 29 l 624 29 l 367 457 l 110 29 m 635 65 l 635 906 l 383 486 l 635 65 z "},"ç":{"ha":732,"x_min":69,"x_max":663,"o":"m 663 972 l 663 0 l 69 0 l 69 972 l 663 972 m 365 515 l 624 944 l 108 944 l 365 515 m 99 903 l 99 68 l 349 486 l 99 903 m 110 29 l 624 29 l 367 457 l 110 29 m 635 65 l 635 906 l 383 486 l 635 65 z "},"è":{"ha":732,"x_min":69,"x_max":663,"o":"m 663 972 l 663 0 l 69 0 l 69 972 l 663 972 m 365 515 l 624 944 l 108 944 l 365 515 m 99 903 l 99 68 l 349 486 l 99 903 m 110 29 l 624 29 l 367 457 l 110 29 m 635 65 l 635 906 l 383 486 l 635 65 z "},"é":{"ha":732,"x_min":69,"x_max":663,"o":"m 663 972 l 663 0 l 69 0 l 69 972 l 663 972 m 365 515 l 624 944 l 108 944 l 365 515 m 99 903 l 99 68 l 349 486 l 99 903 m 110 29 l 624 29 l 367 457 l 110 29 m 635 65 l 635 906 l 383 486 l 635 65 z "},"ê":{"ha":732,"x_min":69,"x_max":663,"o":"m 663 972 l 663 0 l 69 0 l 69 972 l 663 972 m 365 515 l 624 944 l 108 944 l 365 515 m 99 903 l 99 68 l 349 486 l 99 903 m 110 29 l 624 29 l 367 457 l 110 29 m 635 65 l 635 906 l 383 486 l 635 65 z "},"ë":{"ha":732,"x_min":69,"x_max":663,"o":"m 663 972 l 663 0 l 69 0 l 69 972 l 663 972 m 365 515 l 624 944 l 108 944 l 365 515 m 99 903 l 99 68 l 349 486 l 99 903 m 110 29 l 624 29 l 367 457 l 110 29 m 635 65 l 635 906 l 383 486 l 635 65 z "},"ì":{"ha":732,"x_min":69,"x_max":663,"o":"m 663 972 l 663 0 l 69 0 l 69 972 l 663 972 m 365 515 l 624 944 l 108 944 l 365 515 m 99 903 l 99 68 l 349 486 l 99 903 m 110 29 l 624 29 l 367 457 l 110 29 m 635 65 l 635 906 l 383 486 l 635 65 z "},"í":{"ha":732,"x_min":69,"x_max":663,"o":"m 663 972 l 663 0 l 69 0 l 69 972 l 663 972 m 365 515 l 624 944 l 108 944 l 365 515 m 99 903 l 99 68 l 349 486 l 99 903 m 110 29 l 624 29 l 367 457 l 110 29 m 635 65 l 635 906 l 383 486 l 635 65 z "},"î":{"ha":732,"x_min":69,"x_max":663,"o":"m 663 972 l 663 0 l 69 0 l 69 972 l 663 972 m 365 515 l 624 944 l 108 944 l 365 515 m 99 903 l 99 68 l 349 486 l 99 903 m 110 29 l 624 29 l 367 457 l 110 29 m 635 65 l 635 906 l 383 486 l 635 65 z "},"ï":{"ha":732,"x_min":69,"x_max":663,"o":"m 663 972 l 663 0 l 69 0 l 69 972 l 663 972 m 365 515 l 624 944 l 108 944 l 365 515 m 99 903 l 99 68 l 349 486 l 99 903 m 110 29 l 624 29 l 367 457 l 110 29 m 635 65 l 635 906 l 383 486 l 635 65 z "},"ñ":{"ha":732,"x_min":69,"x_max":663,"o":"m 663 972 l 663 0 l 69 0 l 69 972 l 663 972 m 365 515 l 624 944 l 108 944 l 365 515 m 99 903 l 99 68 l 349 486 l 99 903 m 110 29 l 624 29 l 367 457 l 110 29 m 635 65 l 635 906 l 383 486 l 635 65 z "},"ò":{"ha":732,"x_min":69,"x_max":663,"o":"m 663 972 l 663 0 l 69 0 l 69 972 l 663 972 m 365 515 l 624 944 l 108 944 l 365 515 m 99 903 l 99 68 l 349 486 l 99 903 m 110 29 l 624 29 l 367 457 l 110 29 m 635 65 l 635 906 l 383 486 l 635 65 z "},"ó":{"ha":732,"x_min":69,"x_max":663,"o":"m 663 972 l 663 0 l 69 0 l 69 972 l 663 972 m 365 515 l 624 944 l 108 944 l 365 515 m 99 903 l 99 68 l 349 486 l 99 903 m 110 29 l 624 29 l 367 457 l 110 29 m 635 65 l 635 906 l 383 486 l 635 65 z "},"ô":{"ha":732,"x_min":69,"x_max":663,"o":"m 663 972 l 663 0 l 69 0 l 69 972 l 663 972 m 365 515 l 624 944 l 108 944 l 365 515 m 99 903 l 99 68 l 349 486 l 99 903 m 110 29 l 624 29 l 367 457 l 110 29 m 635 65 l 635 906 l 383 486 l 635 65 z "},"õ":{"ha":732,"x_min":69,"x_max":663,"o":"m 663 972 l 663 0 l 69 0 l 69 972 l 663 972 m 365 515 l 624 944 l 108 944 l 365 515 m 99 903 l 99 68 l 349 486 l 99 903 m 110 29 l 624 29 l 367 457 l 110 29 m 635 65 l 635 906 l 383 486 l 635 65 z "},"ö":{"ha":732,"x_min":69,"x_max":663,"o":"m 663 972 l 663 0 l 69 0 l 69 972 l 663 972 m 365 515 l 624 944 l 108 944 l 365 515 m 99 903 l 99 68 l 349 486 l 99 903 m 110 29 l 624 29 l 367 457 l 110 29 m 635 65 l 635 906 l 383 486 l 635 65 z "},"ø":{"ha":732,"x_min":69,"x_max":663,"o":"m 663 972 l 663 0 l 69 0 l 69 972 l 663 972 m 365 515 l 624 944 l 108 944 l 365 515 m 99 903 l 99 68 l 349 486 l 99 903 m 110 29 l 624 29 l 367 457 l 110 29 m 635 65 l 635 906 l 383 486 l 635 65 z "},"ù":{"ha":732,"x_min":69,"x_max":663,"o":"m 663 972 l 663 0 l 69 0 l 69 972 l 663 972 m 365 515 l 624 944 l 108 944 l 365 515 m 99 903 l 99 68 l 349 486 l 99 903 m 110 29 l 624 29 l 367 457 l 110 29 m 635 65 l 635 906 l 383 486 l 635 65 z "},"ú":{"ha":732,"x_min":69,"x_max":663,"o":"m 663 972 l 663 0 l 69 0 l 69 972 l 663 972 m 365 515 l 624 944 l 108 944 l 365 515 m 99 903 l 99 68 l 349 486 l 99 903 m 110 29 l 624 29 l 367 457 l 110 29 m 635 65 l 635 906 l 383 486 l 635 65 z "},"û":{"ha":732,"x_min":69,"x_max":663,"o":"m 663 972 l 663 0 l 69 0 l 69 972 l 663 972 m 365 515 l 624 944 l 108 944 l 365 515 m 99 903 l 99 68 l 349 486 l 99 903 m 110 29 l 624 29 l 367 457 l 110 29 m 635 65 l 635 906 l 383 486 l 635 65 z "},"ü":{"ha":732,"x_min":69,"x_max":663,"o":"m 663 972 l 663 0 l 69 0 l 69 972 l 663 972 m 365 515 l 624 944 l 108 944 l 365 515 m 99 903 l 99 68 l 349 486 l 99 903 m 110 29 l 624 29 l 367 457 l 110 29 m 635 65 l 635 906 l 383 486 l 635 65 z "},"ý":{"ha":732,"x_min":69,"x_max":663,"o":"m 663 972 l 663 0 l 69 0 l 69 972 l 663 972 m 365 515 l 624 944 l 108 944 l 365 515 m 99 903 l 99 68 l 349 486 l 99 903 m 110 29 l 624 29 l 367 457 l 110 29 m 635 65 l 635 906 l 383 486 l 635 65 z "},"ÿ":{"ha":732,"x_min":69,"x_max":663,"o":"m 663 972 l 663 0 l 69 0 l 69 972 l 663 972 m 365 515 l 624 944 l 108 944 l 365 515 m 99 903 l 99 68 l 349 486 l 99 903 m 110 29 l 624 29 l 367 457 l 110 29 m 635 65 l 635 906 l 383 486 l 635 65 z "}}}
